<svg width="198" height="73" viewBox="0 0 198 73" fill="none" xmlns="http://www.w3.org/2000/svg">
<g clip-path="url(#clip0_150_3404)">
<path d="M35.1219 71.4749C35.0435 71.4749 34.9649 71.4749 34.8904 71.4708H34.8277H33.7411C27.8144 71.4708 21.5659 71.3026 16.0667 69.2755C8.25325 66.3989 3.51106 60.4415 1.96955 51.5717L1.95385 51.4796C0.475099 41.8324 -0.191708 31.7165 4.89959 23.0349L5.04864 22.7946C6.48817 20.579 8.25326 18.7922 10.3008 17.4703C13.1406 15.4831 16.2825 13.5481 20.1657 11.4047C20.8638 10.996 21.5777 10.5754 22.2917 10.1547C26.818 7.49055 31.5014 4.73423 36.3652 2.29841L36.428 2.27038C37.2987 1.84971 39.1032 0.980347 41.2957 0.980347C42.4921 0.980347 43.6335 1.24476 44.6848 1.76959C46.1047 2.47469 47.2303 3.57641 47.9795 4.98262C48.356 4.93455 48.7288 4.91452 49.0896 4.91452C50.8312 4.91452 52.408 5.45136 53.7768 6.51303C55.9969 8.23572 57.0129 10.8398 56.7343 14.0729C59.3036 15.1105 62.7632 16.745 65.6029 19.4052H188.116C193.061 19.4052 197.09 23.5158 197.09 28.5715V62.3206C197.09 67.3724 193.066 71.487 188.116 71.487H35.114L35.1219 71.4749Z" fill="white"/>
<path d="M41.2785 1.80834C42.2395 1.80834 43.2749 1.99664 44.3144 2.51345C45.7539 3.22657 46.8482 4.40039 47.4954 5.89074C48.0171 5.79459 48.5427 5.7425 49.0723 5.7425C50.4921 5.7425 51.9277 6.13511 53.2653 7.17274C55.9208 9.23598 56.1523 12.3048 55.8385 14.6124C59.1294 15.8984 62.5379 17.589 65.2679 20.2332H188.103C192.59 20.2332 196.26 23.9831 196.26 28.5662V62.3153C196.26 66.8983 192.59 70.6483 188.103 70.6483H35.1005C35.0104 70.6483 34.9202 70.6483 34.8339 70.6402C34.4692 70.6402 34.1003 70.6402 33.7277 70.6402C28.056 70.6402 21.788 70.508 16.3201 68.4968C8.80079 65.7286 4.23505 59.9875 2.75238 51.4301L2.74065 51.346C1.28543 41.8631 0.622542 31.9196 5.58047 23.4663L5.71775 23.2419C7.08276 21.1387 8.76548 19.4359 10.7149 18.1779C13.5547 16.1909 16.677 14.2679 20.5328 12.1405C21.2465 11.7199 21.9644 11.2992 22.6783 10.8786C27.2047 8.21438 31.8647 5.47008 36.7048 3.04627L36.7598 3.01824C37.5639 2.62963 39.2662 1.80834 41.2745 1.80834M41.2785 0.141724C38.9015 0.141724 36.9167 1.09923 36.0655 1.50787L36.0028 1.53992C31.0997 3.99576 26.4046 6.7601 21.8664 9.43228C21.1604 9.84894 20.4504 10.2656 19.7404 10.6822C15.8494 12.8296 12.6957 14.7687 9.82059 16.7838C7.6868 18.1661 5.84721 20.029 4.36062 22.3165L4.34883 22.3325L4.33705 22.3485L4.19978 22.5728L4.188 22.589L4.18015 22.6049C-1.04451 31.5149 -0.373744 41.807 1.12854 51.5983L1.1442 51.6985V51.7066V51.7146C2.73669 60.9009 7.65935 67.0706 15.767 70.0553C21.3879 72.1266 27.7226 72.2989 33.7277 72.2989C34.0886 72.2989 34.4495 72.2989 34.8063 72.2989H34.8299C34.9202 72.3028 35.0104 72.3069 35.1005 72.3069H188.103C193.499 72.3069 197.889 67.8239 197.889 62.3112V28.5623C197.889 23.0497 193.499 18.5667 188.103 18.5667H65.8993C63.2125 16.1268 60.055 14.5563 57.5681 13.5187C57.6976 10.2736 56.5641 7.64147 54.2499 5.84666C52.7359 4.67284 50.9942 4.0799 49.0684 4.0799C48.8486 4.0799 48.6251 4.08791 48.3976 4.10394C47.5778 2.77385 46.4285 1.72019 45.0204 1.0191C43.8554 0.442195 42.5963 0.14573 41.2745 0.14573L41.2785 0.141724Z" fill="#3079BE"/>
<path d="M40.8658 15.4104C43.3291 14.3287 51.9663 7.59013 50.0993 14.7373C49.1695 18.8317 48.9735 18.0705 52.6723 19.5249C56.7713 21.0312 61.1801 22.9863 63.4551 27.0086C66.491 32.7215 66.5186 40.1291 66.0086 46.4711C64.7103 65.7975 50.719 64.8919 35.755 64.8919C23.9563 64.8919 10.8751 65.2165 8.30589 50.4253C7.09778 42.545 6.23481 33.5509 10.42 26.4156C11.3222 25.0294 12.4362 23.8516 13.8169 22.9782C16.8607 20.8389 20.0378 18.9479 23.2895 17.1571C28.5416 14.0763 33.7584 10.9274 39.2027 8.20309C40.2382 7.70631 42.1014 6.88503 42.478 8.55564C42.8742 10.719 41.3208 13.227 40.8149 15.3503C40.8306 15.3743 40.8502 15.3944 40.8658 15.4184V15.4104Z" fill="#4286C6"/>
<path d="M46.2642 23.8693C44.6755 23.9173 43.2518 23.9133 43.1184 22.4832C43.0635 21.8982 43.2243 20.2276 42.2947 20.532C39.9255 21.221 37.9565 22.7314 35.7442 23.7651C35.2736 23.9494 34.9323 23.8693 34.748 23.3885C34.5205 22.7915 34.6969 21.734 34.6066 20.6723C34.5636 20.1674 34.6381 19.1217 33.9085 19.1899C32.4298 19.4222 31.3119 20.0592 29.6997 20.7323C27.5502 21.6297 22.8865 22.9197 25.0556 21.4134C28.9781 19.6586 32.8534 17.8158 36.5286 15.5722C36.9405 15.4 37.1131 15.5242 37.1917 15.9769C37.2386 17.1747 36.87 18.3526 36.7993 19.5505C36.7169 20.6321 37.1091 20.9046 38.0624 20.4158C40.1256 19.4823 42.1261 18.3846 44.2481 17.5914C46.3426 16.8143 45.26 19.3181 45.6797 21.2411C46.0955 23.1401 47.9351 23.0159 49.4531 22.9839C49.5864 22.9839 49.7982 22.9317 49.8099 23.1281C49.9237 23.5687 46.6564 23.8652 46.2642 23.8772V23.8693Z" fill="white"/>
<path d="M59.1 44.0555C59.1156 43.034 59.0842 42.0043 58.998 40.9868C58.7076 37.2328 57.68 33.2105 54.8637 31.1913C54.2244 30.7507 53.5615 30.4342 52.8829 30.2178C51.7846 29.8493 50.5138 29.7332 49.0546 29.9254C47.2033 30.0896 45.4146 30.7065 43.6417 31.3597C42.3277 31.8244 41.0529 32.3011 39.8527 32.6457C39.8291 32.6536 39.8016 32.6617 39.778 32.6697C38.7818 32.9381 37.7855 33.1185 36.7736 33.1384C35.7617 33.1185 34.7613 32.9381 33.769 32.6697C33.7454 32.6617 33.7179 32.6536 33.6945 32.6457C32.4981 32.3011 31.2195 31.8244 29.9055 31.3597C28.1325 30.7106 26.34 30.0896 24.4926 29.9254C23.0334 29.7332 21.7625 29.8493 20.6641 30.2178C19.9856 30.4342 19.3228 30.7467 18.6835 31.1913C15.8671 33.2066 14.8433 37.2328 14.5492 40.9868C14.4629 42.0004 14.4276 43.034 14.4472 44.0555C14.3217 52.2244 17.3302 58.971 24.9044 60.6215C26.489 61.0222 28.1757 61.2345 29.9055 61.3467C32.0431 61.5028 41.5078 61.5028 43.6457 61.3467C45.3754 61.2345 47.0621 61.0222 48.6468 60.6215C56.2209 58.971 59.2293 52.2284 59.1039 44.0555H59.1Z" fill="white"/>
<path d="M26.0746 35.8593C26.0746 35.8593 26.0746 35.8353 26.0746 35.8232C26.0746 35.8112 26.0746 35.7992 26.0746 35.7872C26.0746 35.7872 26.0746 35.7791 26.0746 35.7751C26.0706 35.703 26.055 35.631 26.0274 35.5669C25.9843 35.4587 25.9334 35.3546 25.8784 35.2584C25.8744 35.2505 25.8667 35.2385 25.8627 35.2304C25.8471 35.2024 25.8273 35.1783 25.8117 35.1543C25.7921 35.1263 25.7764 35.0983 25.7568 35.0703C25.7528 35.0622 25.7449 35.0583 25.7412 35.0502C25.2977 34.4654 24.5797 34.149 23.8382 34.105C23.8186 34.105 23.8028 34.105 23.7832 34.105C23.7401 34.105 23.6969 34.105 23.6537 34.105C23.6106 34.105 23.5674 34.105 23.5243 34.105C23.5047 34.105 23.489 34.105 23.4694 34.105C22.7278 34.149 22.0099 34.4654 21.5665 35.0502C21.5625 35.0583 21.5548 35.0622 21.5508 35.0703C21.5312 35.0983 21.5116 35.1263 21.4958 35.1543C21.4802 35.1783 21.4606 35.2024 21.4449 35.2304C21.441 35.2385 21.4331 35.2505 21.4291 35.2584C21.3742 35.3546 21.3232 35.4587 21.28 35.5669C21.2527 35.635 21.2369 35.703 21.2329 35.7751C21.2329 35.7751 21.2329 35.7832 21.2329 35.7872C21.2329 35.7992 21.2329 35.8112 21.2329 35.8232C21.2329 35.8353 21.2329 35.8473 21.2329 35.8593C21.2329 35.8633 21.2329 35.8672 21.2329 35.8713C21.2329 35.9073 21.2408 35.9433 21.2487 35.9794C21.3194 36.2477 21.5116 36.3359 21.7274 36.3079C21.7391 36.3079 21.747 36.3079 21.7587 36.3038C21.9197 36.2757 22.0923 36.1837 22.2335 36.0516C22.6375 35.663 23.1358 35.5228 23.6537 35.5068C24.1677 35.5269 24.6699 35.663 25.074 36.0516C25.2153 36.1837 25.384 36.2718 25.5488 36.3038C25.5606 36.3038 25.5685 36.3079 25.5802 36.3079C25.796 36.3359 25.9882 36.2477 26.0589 35.9794C26.0667 35.9433 26.0746 35.9073 26.0746 35.8713C26.0746 35.8672 26.0746 35.8633 26.0746 35.8593Z" fill="#4286C6"/>
<path d="M25.536 41.342C25.5714 40.1322 25.0927 38.2695 23.7472 38.1453C23.6882 38.1453 23.6294 38.1453 23.5706 38.1453C22.2291 38.2695 21.7464 40.1282 21.7818 41.342C21.7779 42.5758 22.1584 44.3543 23.5706 44.5385C23.6294 44.5385 23.6882 44.5385 23.7472 44.5385C25.1594 44.3543 25.5399 42.5797 25.536 41.342Z" fill="#4286C6"/>
<path d="M51.342 35.8593C51.342 35.8593 51.342 35.8353 51.342 35.8232C51.342 35.8112 51.342 35.7992 51.342 35.7872C51.342 35.7872 51.342 35.7791 51.342 35.7751C51.3382 35.703 51.3224 35.631 51.295 35.5669C51.2519 35.4587 51.2008 35.3546 51.1459 35.2584C51.142 35.2505 51.1341 35.2385 51.1301 35.2304C51.1145 35.2024 51.0949 35.1783 51.0792 35.1543C51.0596 35.1263 51.0438 35.0983 51.0242 35.0703C51.0203 35.0622 51.0125 35.0583 51.0086 35.0502C50.5653 34.4654 49.8472 34.149 49.1056 34.105C49.086 34.105 49.0704 34.105 49.0508 34.105C49.0076 34.105 48.9645 34.105 48.9213 34.105C48.8782 34.105 48.835 34.105 48.7918 34.105C48.7722 34.105 48.7564 34.105 48.7368 34.105C47.9954 34.149 47.2773 34.4654 46.8341 35.0502C46.8301 35.0583 46.8222 35.0622 46.8182 35.0703C46.7986 35.0983 46.779 35.1263 46.7634 35.1543C46.7477 35.1783 46.7281 35.2024 46.7123 35.2304C46.7085 35.2385 46.7006 35.2505 46.6967 35.2584C46.6418 35.3546 46.5908 35.4587 46.5476 35.5669C46.5201 35.635 46.5044 35.703 46.5005 35.7751C46.5005 35.7751 46.5005 35.7832 46.5005 35.7872C46.5005 35.7992 46.5005 35.8112 46.5005 35.8232C46.5005 35.8353 46.5005 35.8473 46.5005 35.8593C46.5005 35.8633 46.5005 35.8672 46.5005 35.8713C46.5005 35.9073 46.5084 35.9433 46.5161 35.9794C46.5868 36.2477 46.779 36.3359 46.9948 36.3079C47.0067 36.3079 47.0144 36.3079 47.0263 36.3038C47.1871 36.2757 47.3597 36.1837 47.501 36.0516C47.9051 35.663 48.4034 35.5228 48.9213 35.5068C49.4353 35.5269 49.9375 35.663 50.3416 36.0516C50.4828 36.1837 50.6516 36.2718 50.8163 36.3038C50.828 36.3038 50.8359 36.3079 50.8476 36.3079C51.0634 36.3359 51.2558 36.2477 51.3263 35.9794C51.3342 35.9433 51.342 35.9073 51.342 35.8713C51.342 35.8672 51.342 35.8633 51.342 35.8593Z" fill="#4286C6"/>
<path d="M50.8219 41.338C50.8219 41.1377 50.814 40.9494 50.7984 40.7651C50.7944 40.697 50.7865 40.633 50.7788 40.5648C50.7669 40.4567 50.7513 40.3485 50.7317 40.2483C50.72 40.1803 50.7041 40.1162 50.6924 40.0521C50.6649 39.9279 50.6297 39.8077 50.5944 39.6955C50.5669 39.6154 50.5394 39.5393 50.5121 39.4632C50.4923 39.4151 50.4727 39.367 50.4531 39.3231C50.4258 39.2629 50.3982 39.2069 50.3668 39.1508C50.3472 39.1188 50.3315 39.0827 50.3119 39.0506C50.3119 39.0506 50.3119 39.0427 50.308 39.0427C49.9902 38.5098 49.5665 38.2135 49.1272 38.1533C49.0997 38.1494 49.0684 38.1453 49.0409 38.1453C49.0213 38.1453 49.0017 38.1453 48.9821 38.1453C48.9742 38.1453 48.9625 38.1453 48.9546 38.1453C48.9468 38.1453 48.935 38.1453 48.9271 38.1453C48.9075 38.1453 48.8879 38.1453 48.8683 38.1453C48.8408 38.1453 48.8095 38.1494 48.7819 38.1533C48.3426 38.2174 47.9189 38.5139 47.6012 39.0427C47.6012 39.0427 47.6012 39.0506 47.5972 39.0506C47.5776 39.0827 47.558 39.1147 47.5424 39.1508C47.5109 39.2069 47.4836 39.2629 47.4561 39.3231C47.4365 39.367 47.4169 39.4151 47.3973 39.4632C47.3658 39.5393 47.3384 39.6154 47.3149 39.6955C47.2795 39.8077 47.2442 39.9279 47.2167 40.0521C47.2011 40.1162 47.1894 40.1803 47.1775 40.2483C47.1579 40.3485 47.1423 40.4567 47.1304 40.5648C47.1227 40.6288 47.1147 40.697 47.1108 40.7651C47.0951 40.9453 47.0874 41.1377 47.0874 41.3339C47.0874 41.5342 47.0951 41.7264 47.1108 41.9068C47.1147 41.9748 47.1227 42.0389 47.1304 42.1071C47.1423 42.2152 47.1579 42.3234 47.1775 42.4235C47.1894 42.4916 47.205 42.5557 47.2167 42.6197C47.2442 42.7439 47.2795 42.8642 47.3149 42.9764C47.3422 43.0564 47.3697 43.1325 47.3973 43.2086C47.4169 43.2567 47.4365 43.3048 47.4561 43.3488C47.4836 43.4089 47.5109 43.4649 47.5424 43.5211C47.562 43.5531 47.5776 43.5852 47.5972 43.6172C47.5972 43.6172 47.6012 43.6252 47.6051 43.6292C47.6483 43.7013 47.6915 43.7654 47.7386 43.8295C47.8993 44.0499 48.0799 44.2141 48.2721 44.3303C48.327 44.3622 48.3818 44.3943 48.4406 44.4184C48.4957 44.4424 48.5545 44.4624 48.6133 44.4825C48.6722 44.4984 48.731 44.5105 48.7859 44.5185C48.8134 44.5225 48.8447 44.5266 48.8722 44.5266C48.8918 44.5266 48.9114 44.5266 48.931 44.5266C48.9429 44.5266 48.9506 44.5266 48.9625 44.5266C48.9742 44.5266 48.9821 44.5266 48.9938 44.5266C49.0134 44.5266 49.0332 44.5266 49.0528 44.5266C49.0801 44.5266 49.1116 44.5225 49.1389 44.5185C49.1979 44.5105 49.2567 44.4984 49.3115 44.4825C49.3704 44.4665 49.4254 44.4464 49.4842 44.4184C49.5392 44.3943 49.598 44.3663 49.6529 44.3303C49.8451 44.2141 50.0256 44.0458 50.1864 43.8295C50.2335 43.7654 50.2767 43.7013 50.3198 43.6292C50.3198 43.6292 50.3236 43.6213 50.3276 43.6172C50.3472 43.5852 50.363 43.5531 50.3826 43.5211C50.4139 43.4649 50.4414 43.4089 50.4689 43.3488C50.4885 43.3048 50.5081 43.2567 50.5277 43.2086C50.559 43.1325 50.5865 43.0564 50.6101 42.9764C50.6453 42.8642 50.6808 42.7439 50.7081 42.6197C50.7237 42.5557 50.7356 42.4916 50.7473 42.4235C50.7669 42.3234 50.7827 42.2152 50.7944 42.1071C50.8023 42.043 50.8101 41.9748 50.814 41.9068C50.8298 41.7264 50.8376 41.5342 50.8376 41.338H50.8219Z" fill="#4286C6"/>
<path d="M40.8658 15.4104C43.3291 14.3287 51.9663 7.59013 50.0993 14.7373C49.1695 18.8317 48.9735 18.0705 52.6723 19.5249C56.7713 21.0312 61.1801 22.9863 63.4551 27.0086C66.491 32.7215 66.5186 40.1291 66.0086 46.4711C64.7103 65.7975 50.719 64.8919 35.755 64.8919C23.9563 64.8919 10.8751 65.2165 8.30589 50.4253C7.09778 42.545 6.23481 33.5509 10.42 26.4156C11.3222 25.0294 12.4362 23.8516 13.8169 22.9782C16.8607 20.8389 20.0378 18.9479 23.2895 17.1571C28.5416 14.0763 33.7584 10.9274 39.2027 8.20309C40.2382 7.70631 42.1014 6.88503 42.478 8.55564C42.8742 10.719 41.3208 13.227 40.8149 15.3503C40.8306 15.3743 40.8502 15.3944 40.8658 15.4184V15.4104Z" fill="#4286C6"/>
<path d="M46.2642 23.8693C44.6755 23.9173 43.2518 23.9133 43.1184 22.4832C43.0635 21.8982 43.2243 20.2276 42.2947 20.532C39.9255 21.221 37.9565 22.7314 35.7442 23.7651C35.2736 23.9494 34.9323 23.8693 34.748 23.3885C34.5205 22.7915 34.6969 21.734 34.6066 20.6723C34.5636 20.1674 34.6381 19.1217 33.9085 19.1899C32.4298 19.4222 31.3119 20.0592 29.6997 20.7323C27.5502 21.6297 22.8865 22.9197 25.0556 21.4134C28.9781 19.6586 32.8534 17.8158 36.5286 15.5722C36.9405 15.4 37.1131 15.5242 37.1917 15.9769C37.2386 17.1747 36.87 18.3526 36.7993 19.5505C36.7169 20.6321 37.1091 20.9046 38.0624 20.4158C40.1256 19.4823 42.1261 18.3846 44.2481 17.5914C46.3426 16.8143 45.26 19.3181 45.6797 21.2411C46.0955 23.1401 47.9351 23.0159 49.4531 22.9839C49.5864 22.9839 49.7982 22.9317 49.8099 23.1281C49.9237 23.5687 46.6564 23.8652 46.2642 23.8772V23.8693Z" fill="white"/>
<path d="M59.1 44.0555C59.1156 43.034 59.0842 42.0043 58.998 40.9868C58.7076 37.2328 57.68 33.2105 54.8637 31.1913C54.2244 30.7507 53.5615 30.4342 52.8829 30.2178C51.7846 29.8493 50.5138 29.7332 49.0546 29.9254C47.2033 30.0896 45.4146 30.7065 43.6417 31.3597C42.3277 31.8244 41.0529 32.3011 39.8527 32.6457C39.8291 32.6536 39.8016 32.6617 39.778 32.6697C38.7818 32.9381 37.7855 33.1185 36.7736 33.1384C35.7617 33.1185 34.7613 32.9381 33.769 32.6697C33.7454 32.6617 33.7179 32.6536 33.6945 32.6457C32.4981 32.3011 31.2195 31.8244 29.9055 31.3597C28.1325 30.7106 26.34 30.0896 24.4926 29.9254C23.0334 29.7332 21.7625 29.8493 20.6641 30.2178C19.9856 30.4342 19.3228 30.7467 18.6835 31.1913C15.8671 33.2066 14.8433 37.2328 14.5492 40.9868C14.4629 42.0004 14.4276 43.034 14.4472 44.0555C14.3217 52.2244 17.3302 58.971 24.9044 60.6215C26.489 61.0222 28.1757 61.2345 29.9055 61.3467C32.0431 61.5028 41.5078 61.5028 43.6457 61.3467C45.3754 61.2345 47.0621 61.0222 48.6468 60.6215C56.2209 58.971 59.2293 52.2284 59.1039 44.0555H59.1Z" fill="white"/>
<path d="M26.0746 35.8593C26.0746 35.8593 26.0746 35.8353 26.0746 35.8232C26.0746 35.8112 26.0746 35.7992 26.0746 35.7872C26.0746 35.7872 26.0746 35.7791 26.0746 35.7751C26.0706 35.703 26.055 35.631 26.0274 35.5669C25.9843 35.4587 25.9334 35.3546 25.8784 35.2584C25.8744 35.2505 25.8667 35.2385 25.8627 35.2304C25.8471 35.2024 25.8273 35.1783 25.8117 35.1543C25.7921 35.1263 25.7764 35.0983 25.7568 35.0703C25.7528 35.0622 25.7449 35.0583 25.7412 35.0502C25.2977 34.4654 24.5797 34.149 23.8382 34.105C23.8186 34.105 23.8028 34.105 23.7832 34.105C23.7401 34.105 23.6969 34.105 23.6537 34.105C23.6106 34.105 23.5674 34.105 23.5243 34.105C23.5047 34.105 23.489 34.105 23.4694 34.105C22.7278 34.149 22.0099 34.4654 21.5665 35.0502C21.5625 35.0583 21.5548 35.0622 21.5508 35.0703C21.5312 35.0983 21.5116 35.1263 21.4958 35.1543C21.4802 35.1783 21.4606 35.2024 21.4449 35.2304C21.441 35.2385 21.4331 35.2505 21.4291 35.2584C21.3742 35.3546 21.3232 35.4587 21.28 35.5669C21.2527 35.635 21.2369 35.703 21.2329 35.7751C21.2329 35.7751 21.2329 35.7832 21.2329 35.7872C21.2329 35.7992 21.2329 35.8112 21.2329 35.8232C21.2329 35.8353 21.2329 35.8473 21.2329 35.8593C21.2329 35.8633 21.2329 35.8672 21.2329 35.8713C21.2329 35.9073 21.2408 35.9433 21.2487 35.9794C21.3194 36.2477 21.5116 36.3359 21.7274 36.3079C21.7391 36.3079 21.747 36.3079 21.7587 36.3038C21.9197 36.2757 22.0923 36.1837 22.2335 36.0516C22.6375 35.663 23.1358 35.5228 23.6537 35.5068C24.1677 35.5269 24.6699 35.663 25.074 36.0516C25.2153 36.1837 25.384 36.2718 25.5488 36.3038C25.5606 36.3038 25.5685 36.3079 25.5802 36.3079C25.796 36.3359 25.9882 36.2477 26.0589 35.9794C26.0667 35.9433 26.0746 35.9073 26.0746 35.8713C26.0746 35.8672 26.0746 35.8633 26.0746 35.8593Z" fill="#4286C6"/>
<path d="M25.536 41.342C25.5714 40.1322 25.0927 38.2695 23.7472 38.1453C23.6882 38.1453 23.6294 38.1453 23.5706 38.1453C22.2291 38.2695 21.7464 40.1282 21.7818 41.342C21.7779 42.5758 22.1584 44.3543 23.5706 44.5385C23.6294 44.5385 23.6882 44.5385 23.7472 44.5385C25.1594 44.3543 25.5399 42.5797 25.536 41.342Z" fill="#4286C6"/>
<path d="M51.342 35.8593C51.342 35.8593 51.342 35.8353 51.342 35.8232C51.342 35.8112 51.342 35.7992 51.342 35.7872C51.342 35.7872 51.342 35.7791 51.342 35.7751C51.3382 35.703 51.3224 35.631 51.295 35.5669C51.2519 35.4587 51.2008 35.3546 51.1459 35.2584C51.142 35.2505 51.1341 35.2385 51.1301 35.2304C51.1145 35.2024 51.0949 35.1783 51.0792 35.1543C51.0596 35.1263 51.0438 35.0983 51.0242 35.0703C51.0203 35.0622 51.0125 35.0583 51.0086 35.0502C50.5653 34.4654 49.8472 34.149 49.1056 34.105C49.086 34.105 49.0704 34.105 49.0508 34.105C49.0076 34.105 48.9645 34.105 48.9213 34.105C48.8782 34.105 48.835 34.105 48.7918 34.105C48.7722 34.105 48.7564 34.105 48.7368 34.105C47.9954 34.149 47.2773 34.4654 46.8341 35.0502C46.8301 35.0583 46.8222 35.0622 46.8182 35.0703C46.7986 35.0983 46.779 35.1263 46.7634 35.1543C46.7477 35.1783 46.7281 35.2024 46.7123 35.2304C46.7085 35.2385 46.7006 35.2505 46.6967 35.2584C46.6418 35.3546 46.5908 35.4587 46.5476 35.5669C46.5201 35.635 46.5044 35.703 46.5005 35.7751C46.5005 35.7751 46.5005 35.7832 46.5005 35.7872C46.5005 35.7992 46.5005 35.8112 46.5005 35.8232C46.5005 35.8353 46.5005 35.8473 46.5005 35.8593C46.5005 35.8633 46.5005 35.8672 46.5005 35.8713C46.5005 35.9073 46.5084 35.9433 46.5161 35.9794C46.5868 36.2477 46.779 36.3359 46.9948 36.3079C47.0067 36.3079 47.0144 36.3079 47.0263 36.3038C47.1871 36.2757 47.3597 36.1837 47.501 36.0516C47.9051 35.663 48.4034 35.5228 48.9213 35.5068C49.4353 35.5269 49.9375 35.663 50.3416 36.0516C50.4828 36.1837 50.6516 36.2718 50.8163 36.3038C50.828 36.3038 50.8359 36.3079 50.8476 36.3079C51.0634 36.3359 51.2558 36.2477 51.3263 35.9794C51.3342 35.9433 51.342 35.9073 51.342 35.8713C51.342 35.8672 51.342 35.8633 51.342 35.8593Z" fill="#4286C6"/>
<path d="M50.8219 41.338C50.8219 41.1377 50.814 40.9494 50.7984 40.7651C50.7944 40.697 50.7865 40.633 50.7788 40.5648C50.7669 40.4567 50.7513 40.3485 50.7317 40.2483C50.72 40.1803 50.7041 40.1162 50.6924 40.0521C50.6649 39.9279 50.6297 39.8077 50.5944 39.6955C50.5669 39.6154 50.5394 39.5393 50.5121 39.4632C50.4923 39.4151 50.4727 39.367 50.4531 39.3231C50.4258 39.2629 50.3982 39.2069 50.3668 39.1508C50.3472 39.1188 50.3315 39.0827 50.3119 39.0506C50.3119 39.0506 50.3119 39.0427 50.308 39.0427C49.9902 38.5098 49.5665 38.2135 49.1272 38.1533C49.0997 38.1494 49.0684 38.1453 49.0409 38.1453C49.0213 38.1453 49.0017 38.1453 48.9821 38.1453C48.9742 38.1453 48.9625 38.1453 48.9546 38.1453C48.9468 38.1453 48.935 38.1453 48.9271 38.1453C48.9075 38.1453 48.8879 38.1453 48.8683 38.1453C48.8408 38.1453 48.8095 38.1494 48.7819 38.1533C48.3426 38.2174 47.9189 38.5139 47.6012 39.0427C47.6012 39.0427 47.6012 39.0506 47.5972 39.0506C47.5776 39.0827 47.558 39.1147 47.5424 39.1508C47.5109 39.2069 47.4836 39.2629 47.4561 39.3231C47.4365 39.367 47.4169 39.4151 47.3973 39.4632C47.3658 39.5393 47.3384 39.6154 47.3149 39.6955C47.2795 39.8077 47.2442 39.9279 47.2167 40.0521C47.2011 40.1162 47.1894 40.1803 47.1775 40.2483C47.1579 40.3485 47.1423 40.4567 47.1304 40.5648C47.1227 40.6288 47.1147 40.697 47.1108 40.7651C47.0951 40.9453 47.0874 41.1377 47.0874 41.3339C47.0874 41.5342 47.0951 41.7264 47.1108 41.9068C47.1147 41.9748 47.1227 42.0389 47.1304 42.1071C47.1423 42.2152 47.1579 42.3234 47.1775 42.4235C47.1894 42.4916 47.205 42.5557 47.2167 42.6197C47.2442 42.7439 47.2795 42.8642 47.3149 42.9764C47.3422 43.0564 47.3697 43.1325 47.3973 43.2086C47.4169 43.2567 47.4365 43.3048 47.4561 43.3488C47.4836 43.4089 47.5109 43.4649 47.5424 43.5211C47.562 43.5531 47.5776 43.5852 47.5972 43.6172C47.5972 43.6172 47.6012 43.6252 47.6051 43.6292C47.6483 43.7013 47.6915 43.7654 47.7386 43.8295C47.8993 44.0499 48.0799 44.2141 48.2721 44.3303C48.327 44.3622 48.3818 44.3943 48.4406 44.4184C48.4957 44.4424 48.5545 44.4624 48.6133 44.4825C48.6722 44.4984 48.731 44.5105 48.7859 44.5185C48.8134 44.5225 48.8447 44.5266 48.8722 44.5266C48.8918 44.5266 48.9114 44.5266 48.931 44.5266C48.9429 44.5266 48.9506 44.5266 48.9625 44.5266C48.9742 44.5266 48.9821 44.5266 48.9938 44.5266C49.0134 44.5266 49.0332 44.5266 49.0528 44.5266C49.0801 44.5266 49.1116 44.5225 49.1389 44.5185C49.1979 44.5105 49.2567 44.4984 49.3115 44.4825C49.3704 44.4665 49.4254 44.4464 49.4842 44.4184C49.5392 44.3943 49.598 44.3663 49.6529 44.3303C49.8451 44.2141 50.0256 44.0458 50.1864 43.8295C50.2335 43.7654 50.2767 43.7013 50.3198 43.6292C50.3198 43.6292 50.3236 43.6213 50.3276 43.6172C50.3472 43.5852 50.363 43.5531 50.3826 43.5211C50.4139 43.4649 50.4414 43.4089 50.4689 43.3488C50.4885 43.3048 50.5081 43.2567 50.5277 43.2086C50.559 43.1325 50.5865 43.0564 50.6101 42.9764C50.6453 42.8642 50.6808 42.7439 50.7081 42.6197C50.7237 42.5557 50.7356 42.4916 50.7473 42.4235C50.7669 42.3234 50.7827 42.2152 50.7944 42.1071C50.8023 42.043 50.8101 41.9748 50.814 41.9068C50.8298 41.7264 50.8376 41.5342 50.8376 41.338H50.8219Z" fill="#4286C6"/>
<path d="M40.8658 15.4104C43.3291 14.3287 51.9663 7.59013 50.0993 14.7373C49.1695 18.8317 48.9735 18.0705 52.6723 19.5249C56.7713 21.0312 61.1801 22.9863 63.4551 27.0086C66.491 32.7215 66.5186 40.1291 66.0086 46.4711C64.7103 65.7975 50.719 64.8919 35.755 64.8919C23.9563 64.8919 10.8751 65.2165 8.30589 50.4253C7.09778 42.545 6.23481 33.5509 10.42 26.4156C11.3222 25.0294 12.4362 23.8516 13.8169 22.9782C16.8607 20.8389 20.0378 18.9479 23.2895 17.1571C28.5416 14.0763 33.7584 10.9274 39.2027 8.20309C40.2382 7.70631 42.1014 6.88503 42.478 8.55564C42.8742 10.719 41.3208 13.227 40.8149 15.3503C40.8306 15.3743 40.8502 15.3944 40.8658 15.4184V15.4104Z" fill="#4286C6"/>
<path d="M46.2642 23.8693C44.6755 23.9173 43.2518 23.9133 43.1184 22.4832C43.0635 21.8982 43.2243 20.2276 42.2947 20.532C39.9255 21.221 37.9565 22.7314 35.7442 23.7651C35.2736 23.9494 34.9323 23.8693 34.748 23.3885C34.5205 22.7915 34.6969 21.734 34.6066 20.6723C34.5636 20.1674 34.6381 19.1217 33.9085 19.1899C32.4298 19.4222 31.3119 20.0592 29.6997 20.7323C27.5502 21.6297 22.8865 22.9197 25.0556 21.4134C28.9781 19.6586 32.8534 17.8158 36.5286 15.5722C36.9405 15.4 37.1131 15.5242 37.1917 15.9769C37.2386 17.1747 36.87 18.3526 36.7993 19.5505C36.7169 20.6321 37.1091 20.9046 38.0624 20.4158C40.1256 19.4823 42.1261 18.3846 44.2481 17.5914C46.3426 16.8143 45.26 19.3181 45.6797 21.2411C46.0955 23.1401 47.9351 23.0159 49.4531 22.9839C49.5864 22.9839 49.7982 22.9317 49.8099 23.1281C49.9237 23.5687 46.6564 23.8652 46.2642 23.8772V23.8693Z" fill="white"/>
<path d="M59.1 44.0555C59.1156 43.034 59.0842 42.0043 58.998 40.9868C58.7076 37.2328 57.68 33.2105 54.8637 31.1913C54.2244 30.7507 53.5615 30.4342 52.8829 30.2178C51.7846 29.8493 50.5138 29.7332 49.0546 29.9254C47.2033 30.0896 45.4146 30.7065 43.6417 31.3597C42.3277 31.8244 41.0529 32.3011 39.8527 32.6457C39.8291 32.6536 39.8016 32.6617 39.778 32.6697C38.7818 32.9381 37.7855 33.1185 36.7736 33.1384C35.7617 33.1185 34.7613 32.9381 33.769 32.6697C33.7454 32.6617 33.7179 32.6536 33.6945 32.6457C32.4981 32.3011 31.2195 31.8244 29.9055 31.3597C28.1325 30.7106 26.34 30.0896 24.4926 29.9254C23.0334 29.7332 21.7625 29.8493 20.6641 30.2178C19.9856 30.4342 19.3228 30.7467 18.6835 31.1913C15.8671 33.2066 14.8433 37.2328 14.5492 40.9868C14.4629 42.0004 14.4276 43.034 14.4472 44.0555C14.3217 52.2244 17.3302 58.971 24.9044 60.6215C26.489 61.0222 28.1757 61.2345 29.9055 61.3467C32.0431 61.5028 41.5078 61.5028 43.6457 61.3467C45.3754 61.2345 47.0621 61.0222 48.6468 60.6215C56.2209 58.971 59.2293 52.2284 59.1039 44.0555H59.1Z" fill="white"/>
<path d="M26.0746 35.8593C26.0746 35.8593 26.0746 35.8353 26.0746 35.8232C26.0746 35.8112 26.0746 35.7992 26.0746 35.7872C26.0746 35.7872 26.0746 35.7791 26.0746 35.7751C26.0706 35.703 26.055 35.631 26.0274 35.5669C25.9843 35.4587 25.9334 35.3546 25.8784 35.2584C25.8744 35.2505 25.8667 35.2385 25.8627 35.2304C25.8471 35.2024 25.8273 35.1783 25.8117 35.1543C25.7921 35.1263 25.7764 35.0983 25.7568 35.0703C25.7528 35.0622 25.7449 35.0583 25.7412 35.0502C25.2977 34.4654 24.5797 34.149 23.8382 34.105C23.8186 34.105 23.8028 34.105 23.7832 34.105C23.7401 34.105 23.6969 34.105 23.6537 34.105C23.6106 34.105 23.5674 34.105 23.5243 34.105C23.5047 34.105 23.489 34.105 23.4694 34.105C22.7278 34.149 22.0099 34.4654 21.5665 35.0502C21.5625 35.0583 21.5548 35.0622 21.5508 35.0703C21.5312 35.0983 21.5116 35.1263 21.4958 35.1543C21.4802 35.1783 21.4606 35.2024 21.4449 35.2304C21.441 35.2385 21.4331 35.2505 21.4291 35.2584C21.3742 35.3546 21.3232 35.4587 21.28 35.5669C21.2527 35.635 21.2369 35.703 21.2329 35.7751C21.2329 35.7751 21.2329 35.7832 21.2329 35.7872C21.2329 35.7992 21.2329 35.8112 21.2329 35.8232C21.2329 35.8353 21.2329 35.8473 21.2329 35.8593C21.2329 35.8633 21.2329 35.8672 21.2329 35.8713C21.2329 35.9073 21.2408 35.9433 21.2487 35.9794C21.3194 36.2477 21.5116 36.3359 21.7274 36.3079C21.7391 36.3079 21.747 36.3079 21.7587 36.3038C21.9197 36.2757 22.0923 36.1837 22.2335 36.0516C22.6375 35.663 23.1358 35.5228 23.6537 35.5068C24.1677 35.5269 24.6699 35.663 25.074 36.0516C25.2153 36.1837 25.384 36.2718 25.5488 36.3038C25.5606 36.3038 25.5685 36.3079 25.5802 36.3079C25.796 36.3359 25.9882 36.2477 26.0589 35.9794C26.0667 35.9433 26.0746 35.9073 26.0746 35.8713C26.0746 35.8672 26.0746 35.8633 26.0746 35.8593Z" fill="#4286C6"/>
<path d="M25.536 41.342C25.5714 40.1322 25.0927 38.2695 23.7472 38.1453C23.6882 38.1453 23.6294 38.1453 23.5706 38.1453C22.2291 38.2695 21.7464 40.1282 21.7818 41.342C21.7779 42.5758 22.1584 44.3543 23.5706 44.5385C23.6294 44.5385 23.6882 44.5385 23.7472 44.5385C25.1594 44.3543 25.5399 42.5797 25.536 41.342Z" fill="#4286C6"/>
<path d="M51.342 35.8593C51.342 35.8593 51.342 35.8353 51.342 35.8232C51.342 35.8112 51.342 35.7992 51.342 35.7872C51.342 35.7872 51.342 35.7791 51.342 35.7751C51.3382 35.703 51.3224 35.631 51.295 35.5669C51.2519 35.4587 51.2008 35.3546 51.1459 35.2584C51.142 35.2505 51.1341 35.2385 51.1301 35.2304C51.1145 35.2024 51.0949 35.1783 51.0792 35.1543C51.0596 35.1263 51.0438 35.0983 51.0242 35.0703C51.0203 35.0622 51.0125 35.0583 51.0086 35.0502C50.5653 34.4654 49.8472 34.149 49.1056 34.105C49.086 34.105 49.0704 34.105 49.0508 34.105C49.0076 34.105 48.9645 34.105 48.9213 34.105C48.8782 34.105 48.835 34.105 48.7918 34.105C48.7722 34.105 48.7564 34.105 48.7368 34.105C47.9954 34.149 47.2773 34.4654 46.8341 35.0502C46.8301 35.0583 46.8222 35.0622 46.8182 35.0703C46.7986 35.0983 46.779 35.1263 46.7634 35.1543C46.7477 35.1783 46.7281 35.2024 46.7123 35.2304C46.7085 35.2385 46.7006 35.2505 46.6967 35.2584C46.6418 35.3546 46.5908 35.4587 46.5476 35.5669C46.5201 35.635 46.5044 35.703 46.5005 35.7751C46.5005 35.7751 46.5005 35.7832 46.5005 35.7872C46.5005 35.7992 46.5005 35.8112 46.5005 35.8232C46.5005 35.8353 46.5005 35.8473 46.5005 35.8593C46.5005 35.8633 46.5005 35.8672 46.5005 35.8713C46.5005 35.9073 46.5084 35.9433 46.5161 35.9794C46.5868 36.2477 46.779 36.3359 46.9948 36.3079C47.0067 36.3079 47.0144 36.3079 47.0263 36.3038C47.1871 36.2757 47.3597 36.1837 47.501 36.0516C47.9051 35.663 48.4034 35.5228 48.9213 35.5068C49.4353 35.5269 49.9375 35.663 50.3416 36.0516C50.4828 36.1837 50.6516 36.2718 50.8163 36.3038C50.828 36.3038 50.8359 36.3079 50.8476 36.3079C51.0634 36.3359 51.2558 36.2477 51.3263 35.9794C51.3342 35.9433 51.342 35.9073 51.342 35.8713C51.342 35.8672 51.342 35.8633 51.342 35.8593Z" fill="#4286C6"/>
<path d="M50.8219 41.338C50.8219 41.1377 50.814 40.9494 50.7984 40.7651C50.7944 40.697 50.7865 40.633 50.7788 40.5648C50.7669 40.4567 50.7513 40.3485 50.7317 40.2483C50.72 40.1803 50.7041 40.1162 50.6924 40.0521C50.6649 39.9279 50.6297 39.8077 50.5944 39.6955C50.5669 39.6154 50.5394 39.5393 50.5121 39.4632C50.4923 39.4151 50.4727 39.367 50.4531 39.3231C50.4258 39.2629 50.3982 39.2069 50.3668 39.1508C50.3472 39.1188 50.3315 39.0827 50.3119 39.0506C50.3119 39.0506 50.3119 39.0427 50.308 39.0427C49.9902 38.5098 49.5665 38.2135 49.1272 38.1533C49.0997 38.1494 49.0684 38.1453 49.0409 38.1453C49.0213 38.1453 49.0017 38.1453 48.9821 38.1453C48.9742 38.1453 48.9625 38.1453 48.9546 38.1453C48.9468 38.1453 48.935 38.1453 48.9271 38.1453C48.9075 38.1453 48.8879 38.1453 48.8683 38.1453C48.8408 38.1453 48.8095 38.1494 48.7819 38.1533C48.3426 38.2174 47.9189 38.5139 47.6012 39.0427C47.6012 39.0427 47.6012 39.0506 47.5972 39.0506C47.5776 39.0827 47.558 39.1147 47.5424 39.1508C47.5109 39.2069 47.4836 39.2629 47.4561 39.3231C47.4365 39.367 47.4169 39.4151 47.3973 39.4632C47.3658 39.5393 47.3384 39.6154 47.3149 39.6955C47.2795 39.8077 47.2442 39.9279 47.2167 40.0521C47.2011 40.1162 47.1894 40.1803 47.1775 40.2483C47.1579 40.3485 47.1423 40.4567 47.1304 40.5648C47.1227 40.6288 47.1147 40.697 47.1108 40.7651C47.0951 40.9453 47.0874 41.1377 47.0874 41.3339C47.0874 41.5342 47.0951 41.7264 47.1108 41.9068C47.1147 41.9748 47.1227 42.0389 47.1304 42.1071C47.1423 42.2152 47.1579 42.3234 47.1775 42.4235C47.1894 42.4916 47.205 42.5557 47.2167 42.6197C47.2442 42.7439 47.2795 42.8642 47.3149 42.9764C47.3422 43.0564 47.3697 43.1325 47.3973 43.2086C47.4169 43.2567 47.4365 43.3048 47.4561 43.3488C47.4836 43.4089 47.5109 43.4649 47.5424 43.5211C47.562 43.5531 47.5776 43.5852 47.5972 43.6172C47.5972 43.6172 47.6012 43.6252 47.6051 43.6292C47.6483 43.7013 47.6915 43.7654 47.7386 43.8295C47.8993 44.0499 48.0799 44.2141 48.2721 44.3303C48.327 44.3622 48.3818 44.3943 48.4406 44.4184C48.4957 44.4424 48.5545 44.4624 48.6133 44.4825C48.6722 44.4984 48.731 44.5105 48.7859 44.5185C48.8134 44.5225 48.8447 44.5266 48.8722 44.5266C48.8918 44.5266 48.9114 44.5266 48.931 44.5266C48.9429 44.5266 48.9506 44.5266 48.9625 44.5266C48.9742 44.5266 48.9821 44.5266 48.9938 44.5266C49.0134 44.5266 49.0332 44.5266 49.0528 44.5266C49.0801 44.5266 49.1116 44.5225 49.1389 44.5185C49.1979 44.5105 49.2567 44.4984 49.3115 44.4825C49.3704 44.4665 49.4254 44.4464 49.4842 44.4184C49.5392 44.3943 49.598 44.3663 49.6529 44.3303C49.8451 44.2141 50.0256 44.0458 50.1864 43.8295C50.2335 43.7654 50.2767 43.7013 50.3198 43.6292C50.3198 43.6292 50.3236 43.6213 50.3276 43.6172C50.3472 43.5852 50.363 43.5531 50.3826 43.5211C50.4139 43.4649 50.4414 43.4089 50.4689 43.3488C50.4885 43.3048 50.5081 43.2567 50.5277 43.2086C50.559 43.1325 50.5865 43.0564 50.6101 42.9764C50.6453 42.8642 50.6808 42.7439 50.7081 42.6197C50.7237 42.5557 50.7356 42.4916 50.7473 42.4235C50.7669 42.3234 50.7827 42.2152 50.7944 42.1071C50.8023 42.043 50.8101 41.9748 50.814 41.9068C50.8298 41.7264 50.8376 41.5342 50.8376 41.338H50.8219Z" fill="#4286C6"/>
<path d="M40.8724 15.4105C43.3357 14.3288 51.9728 7.59025 50.1058 14.7375C49.1763 18.8319 48.9801 18.0707 52.679 19.525C56.7779 21.0313 61.1867 22.9864 63.4617 27.0087C66.4976 32.7216 66.5251 40.1292 66.0151 46.4712C64.7169 65.7976 50.7255 64.8921 35.7616 64.8921C23.9629 64.8921 10.8817 65.2166 8.31248 50.4254C7.10437 42.5451 6.2414 33.551 10.4266 26.4157C11.3288 25.0295 12.4428 23.8517 13.8234 22.9784C16.8673 20.8391 20.0444 18.948 23.2961 17.1572C28.5482 14.0764 33.7649 10.9275 39.2093 8.20321C40.2448 7.70643 42.108 6.88515 42.4846 8.55576C42.8807 10.7192 41.3274 13.2271 40.8215 15.3504C40.8372 15.3745 40.8568 15.3945 40.8724 15.4185V15.4105Z" fill="#3079BE"/>
<path d="M46.2722 23.8694C44.6836 23.9175 43.2597 23.9136 43.1264 22.4832C43.0714 21.8985 43.2323 20.2278 42.3026 20.5322C39.9335 21.2213 37.9646 22.7316 35.7523 23.7653C35.2815 23.9496 34.9403 23.8694 34.756 23.3887C34.5285 22.7918 34.7049 21.7341 34.6147 20.6724C34.5715 20.1677 34.6461 19.122 33.9166 19.1902C32.4378 19.4225 31.32 20.0595 29.7078 20.7325C27.5583 21.63 22.8945 22.9199 25.0637 21.4137C28.9861 19.6588 32.8615 17.816 36.5367 15.5725C36.9485 15.4002 37.1212 15.5244 37.1996 15.9771C37.2467 17.1749 36.878 18.3529 36.8074 19.5508C36.725 20.6324 37.1172 20.9048 38.0705 20.4161C40.1335 19.4826 42.134 18.3848 44.2561 17.5917C46.3506 16.8145 45.268 19.3183 45.6878 21.2414C46.1035 23.1403 47.9432 23.0161 49.4612 22.9842C49.5944 22.9842 49.8063 22.932 49.818 23.1283C49.9318 23.569 46.6644 23.8655 46.2722 23.8775V23.8694Z" fill="white"/>
<path d="M59.1066 44.0556C59.1222 43.0341 59.0907 42.0044 59.0046 40.9869C58.7143 37.233 57.6866 33.2107 54.8703 31.1914C54.231 30.7508 53.5681 30.4344 52.8894 30.2179C51.7912 29.8494 50.5203 29.7333 49.0612 29.9255C47.2098 30.0897 45.4212 30.7066 43.6483 31.3598C42.3342 31.8245 41.0594 32.3012 39.8592 32.6458C39.8357 32.6537 39.8082 32.6618 39.7848 32.6699C38.7883 32.9382 37.7921 33.1186 36.7802 33.1385C35.7682 33.1186 34.768 32.9382 33.7755 32.6699C33.752 32.6618 33.7245 32.6537 33.7011 32.6458C32.5047 32.3012 31.2261 31.8245 29.912 31.3598C28.1391 30.7108 26.3465 30.0897 24.4991 29.9255C23.04 29.7333 21.7691 29.8494 20.6707 30.2179C19.9922 30.4344 19.3293 30.7468 18.69 31.1914C15.8737 33.2067 14.8499 37.233 14.5557 40.9869C14.4694 42.0005 14.4341 43.0341 14.4538 44.0556C14.3282 52.2244 17.3368 58.9711 24.9109 60.6217C26.4956 61.0223 28.1823 61.2346 29.912 61.3468C32.0497 61.503 41.5144 61.503 43.6522 61.3468C45.382 61.2346 47.0687 61.0223 48.6533 60.6217C56.2275 58.9711 59.236 52.2285 59.1105 44.0556H59.1066Z" fill="white"/>
<path d="M26.0953 35.8305C26.0953 35.8305 26.0953 35.8065 26.0953 35.7944C26.0953 35.7824 26.0953 35.7704 26.0953 35.7584C26.0953 35.7584 26.0953 35.7505 26.0953 35.7463C26.0914 35.6743 26.0757 35.6022 26.0482 35.5381C26.005 35.4299 25.9541 35.3258 25.8991 35.2298C25.8952 35.2217 25.8874 35.2097 25.8835 35.2016C25.8678 35.1736 25.8481 35.1495 25.8324 35.1256C25.8128 35.0975 25.7972 35.0695 25.7776 35.0415C25.7736 35.0334 25.7657 35.0294 25.7617 35.0214C25.3185 34.4366 24.6004 34.1203 23.859 34.0762C23.8394 34.0762 23.8236 34.0762 23.804 34.0762C23.7608 34.0762 23.7176 34.0762 23.6745 34.0762C23.6313 34.0762 23.5882 34.0762 23.545 34.0762C23.5254 34.0762 23.5098 34.0762 23.4902 34.0762C22.7486 34.1203 22.0305 34.4366 21.5872 35.0214C21.5833 35.0294 21.5755 35.0334 21.5716 35.0415C21.552 35.0695 21.5324 35.0975 21.5166 35.1256C21.5009 35.1495 21.4813 35.1736 21.4657 35.2016C21.4617 35.2097 21.4538 35.2217 21.4499 35.2298C21.395 35.3258 21.3439 35.4299 21.3008 35.5381C21.2734 35.6062 21.2576 35.6743 21.2537 35.7463C21.2537 35.7463 21.2537 35.7544 21.2537 35.7584C21.2537 35.7704 21.2537 35.7824 21.2537 35.7944C21.2537 35.8065 21.2537 35.8185 21.2537 35.8305C21.2537 35.8345 21.2537 35.8384 21.2537 35.8425C21.2537 35.8786 21.2616 35.9145 21.2695 35.9506C21.3401 36.2189 21.5324 36.3071 21.7482 36.2791C21.7599 36.2791 21.7678 36.2791 21.7795 36.2751C21.9404 36.2469 22.113 36.1549 22.2542 36.0227C22.6583 35.6342 23.1566 35.494 23.6745 35.478C24.1884 35.4981 24.6907 35.6342 25.0948 36.0227C25.2361 36.1549 25.4048 36.243 25.5695 36.2751C25.5814 36.2751 25.5893 36.2791 25.601 36.2791C25.8168 36.3071 26.009 36.2189 26.0797 35.9506C26.0874 35.9145 26.0953 35.8786 26.0953 35.8425C26.0953 35.8384 26.0953 35.8345 26.0953 35.8305Z" fill="#3079BE"/>
<path d="M25.5411 41.2991C25.5765 40.0893 25.0978 38.2266 23.7523 38.1025C23.6935 38.1025 23.6347 38.1025 23.5757 38.1025C22.2342 38.2266 21.7517 40.0854 21.7869 41.2991C21.783 42.5329 22.1635 44.3114 23.5757 44.4957C23.6347 44.4957 23.6935 44.4957 23.7523 44.4957C25.1645 44.3114 25.545 42.5368 25.5411 41.2991Z" fill="#3079BE"/>
<path d="M51.3758 35.8305C51.3758 35.8305 51.3758 35.8065 51.3758 35.7944C51.3758 35.7824 51.3758 35.7704 51.3758 35.7584C51.3758 35.7584 51.3758 35.7505 51.3758 35.7463C51.3719 35.6743 51.3561 35.6022 51.3287 35.5381C51.2856 35.4299 51.2345 35.3258 51.1796 35.2298C51.1757 35.2217 51.1678 35.2097 51.164 35.2016C51.1482 35.1736 51.1286 35.1495 51.1129 35.1256C51.0933 35.0975 51.0777 35.0695 51.0579 35.0415C51.0541 35.0334 51.0462 35.0294 51.0423 35.0214C50.599 34.4366 49.8809 34.1203 49.1393 34.0762C49.1197 34.0762 49.1041 34.0762 49.0845 34.0762C49.0413 34.0762 48.9982 34.0762 48.955 34.0762C48.9118 34.0762 48.8687 34.0762 48.8255 34.0762C48.8059 34.0762 48.7901 34.0762 48.7705 34.0762C48.0291 34.1203 47.311 34.4366 46.8678 35.0214C46.8638 35.0294 46.8559 35.0334 46.8519 35.0415C46.8323 35.0695 46.8127 35.0975 46.7971 35.1256C46.7814 35.1495 46.7618 35.1736 46.746 35.2016C46.7422 35.2097 46.7343 35.2217 46.7304 35.2298C46.6755 35.3258 46.6245 35.4299 46.5813 35.5381C46.5538 35.6062 46.5381 35.6743 46.5342 35.7463C46.5342 35.7463 46.5342 35.7544 46.5342 35.7584C46.5342 35.7704 46.5342 35.7824 46.5342 35.7944C46.5342 35.8065 46.5342 35.8185 46.5342 35.8305C46.5342 35.8345 46.5342 35.8384 46.5342 35.8425C46.5342 35.8786 46.5421 35.9145 46.55 35.9506C46.6205 36.2189 46.8127 36.3071 47.0285 36.2791C47.0404 36.2791 47.0481 36.2791 47.06 36.2751C47.2208 36.2469 47.3934 36.1549 47.5347 36.0227C47.9388 35.6342 48.4371 35.494 48.955 35.478C49.4689 35.4981 49.9712 35.6342 50.3753 36.0227C50.5166 36.1549 50.6853 36.243 50.85 36.2751C50.8617 36.2751 50.8696 36.2791 50.8813 36.2791C51.0971 36.3071 51.2895 36.2189 51.36 35.9506C51.3679 35.9145 51.3758 35.8786 51.3758 35.8425C51.3758 35.8384 51.3758 35.8345 51.3758 35.8305Z" fill="#3079BE"/>
<path d="M50.8273 41.2951C50.8273 41.0948 50.8194 40.9065 50.8037 40.7222C50.7998 40.6542 50.792 40.5901 50.7841 40.522C50.7724 40.4138 50.7566 40.3056 50.737 40.2054C50.7253 40.1374 50.7097 40.0733 50.6978 40.0092C50.6703 39.885 50.6351 39.7648 50.5998 39.6528C50.5723 39.5726 50.5448 39.4965 50.5174 39.4204C50.4978 39.3723 50.4782 39.3243 50.4585 39.2802C50.4311 39.22 50.4036 39.164 50.3723 39.1079C50.3527 39.0759 50.3369 39.0398 50.3173 39.0077C50.3173 39.0077 50.3173 38.9998 50.3133 38.9998C49.9956 38.4671 49.5719 38.1706 49.1326 38.1104C49.1051 38.1065 49.0738 38.1025 49.0463 38.1025C49.0267 38.1025 49.0071 38.1025 48.9875 38.1025C48.9796 38.1025 48.9679 38.1025 48.9599 38.1025C48.9522 38.1025 48.9403 38.1025 48.9326 38.1025C48.913 38.1025 48.8932 38.1025 48.8736 38.1025C48.8463 38.1025 48.8148 38.1065 48.7875 38.1104C48.348 38.1745 47.9243 38.471 47.6066 38.9998C47.6066 38.9998 47.6066 39.0077 47.6028 39.0077C47.583 39.0398 47.5634 39.072 47.5477 39.1079C47.5164 39.164 47.4889 39.22 47.4614 39.2802C47.4418 39.3243 47.4222 39.3723 47.4026 39.4204C47.3712 39.4965 47.3438 39.5726 47.3203 39.6528C47.285 39.7648 47.2496 39.885 47.2223 40.0092C47.2064 40.0733 47.1947 40.1374 47.1829 40.2054C47.1633 40.3056 47.1476 40.4138 47.1359 40.522C47.128 40.5861 47.1201 40.6542 47.1163 40.7222C47.1005 40.9026 47.0928 41.0948 47.0928 41.2912C47.0928 41.4913 47.1005 41.6837 47.1163 41.8639C47.1201 41.9319 47.128 41.996 47.1359 42.0642C47.1476 42.1723 47.1633 42.2805 47.1829 42.3807C47.1947 42.4487 47.2104 42.5128 47.2223 42.577C47.2496 42.7011 47.285 42.8213 47.3203 42.9335C47.3478 43.0135 47.3751 43.0896 47.4026 43.1657C47.4222 43.2138 47.4418 43.2619 47.4614 43.3059C47.4889 43.3661 47.5164 43.4222 47.5477 43.4782C47.5673 43.5103 47.583 43.5423 47.6028 43.5744C47.6028 43.5744 47.6066 43.5823 47.6105 43.5865C47.6537 43.6584 47.6968 43.7225 47.7439 43.7866C47.9047 44.007 48.0853 44.1712 48.2775 44.2874C48.3323 44.3195 48.3872 44.3514 48.4462 44.3755C48.501 44.3995 48.5598 44.4196 48.6186 44.4396C48.6776 44.4557 48.7364 44.4676 48.7913 44.4757C48.8188 44.4796 48.8501 44.4837 48.8776 44.4837C48.8972 44.4837 48.9168 44.4837 48.9364 44.4837C48.9483 44.4837 48.956 44.4837 48.9679 44.4837C48.9796 44.4837 48.9875 44.4837 48.9993 44.4837C49.0189 44.4837 49.0384 44.4837 49.0581 44.4837C49.0855 44.4837 49.1169 44.4796 49.1444 44.4757C49.2033 44.4676 49.2621 44.4557 49.3169 44.4396C49.3759 44.4236 49.4307 44.4035 49.4895 44.3755C49.5446 44.3514 49.6034 44.3234 49.6582 44.2874C49.8505 44.1712 50.031 44.003 50.1918 43.7866C50.2389 43.7225 50.282 43.6584 50.3252 43.5865C50.3252 43.5865 50.329 43.5784 50.3329 43.5744C50.3526 43.5423 50.3684 43.5103 50.388 43.4782C50.4193 43.4222 50.4468 43.3661 50.4743 43.3059C50.4939 43.2619 50.5135 43.2138 50.5331 43.1657C50.5644 43.0896 50.5919 43.0135 50.6155 42.9335C50.6507 42.8213 50.6861 42.7011 50.7135 42.577C50.7293 42.5128 50.741 42.4487 50.7528 42.3807C50.7724 42.2805 50.7881 42.1723 50.7998 42.0642C50.8077 42.0001 50.8156 41.9319 50.8195 41.8639C50.8352 41.6837 50.8429 41.4913 50.8429 41.2951H50.8273Z" fill="#3079BE"/>
<path d="M34.9171 56.3363C33.3481 56.3363 32.293 56.2082 32.2263 56.2001C31.8341 56.1522 31.5516 55.7835 31.6026 55.3829C31.6496 54.9823 32.0105 54.6938 32.4027 54.7419C32.5047 54.754 42.5972 55.9477 46.7588 50.5513C47.0059 50.2307 47.4571 50.1787 47.7669 50.431C48.0807 50.6836 48.1317 51.1443 47.8846 51.4647C45.935 53.9886 42.5972 55.6073 38.2237 56.1441C36.9998 56.2924 35.8623 56.3404 34.9132 56.3404L34.9171 56.3363Z" fill="#3079BE"/>
<path d="M110.63 28.2058C112.579 28.2058 114.211 29.7803 114.211 31.9115C114.211 34.0429 112.579 35.6174 110.63 35.6174C108.68 35.6174 107.092 33.8586 107.092 31.9115C107.092 29.9644 108.586 28.2058 110.63 28.2058ZM107.456 41.4065C107.456 39.2751 108.002 38.7663 110.179 38.7663H111.175C113.352 38.7663 113.85 39.2751 113.85 41.4065V59.2825C113.85 61.4139 113.352 61.9226 111.175 61.9226H110.179C108.002 61.9226 107.456 61.4139 107.456 59.2825V41.4065Z" fill="#3079BE"/>
<path d="M131.276 42.0034C131.276 44.1348 130.915 44.5033 128.738 44.2269C127.604 44.0426 126.788 43.9024 125.655 43.9024C124.113 43.9024 123.568 44.4113 123.568 45.3367C123.568 46.9112 125.745 47.2357 127.832 48.2092C130.052 49.2748 132.276 50.7572 132.276 55.2964C132.276 60.6688 129.193 62.3834 124.251 62.3834C121.803 62.3834 121.077 62.2433 119.128 61.9668C117.088 61.6423 117.088 60.8571 117.088 58.7257V58.5414C117.088 56.366 117.449 56.0856 119.085 56.366C120.171 56.5503 120.944 56.8307 122.803 56.8307C124.027 56.8307 125.616 56.5062 125.616 55.116C125.616 53.4935 124.027 52.9406 122.168 52.1073C119.63 50.9975 117.316 49.6515 117.316 45.3929C117.316 41.5027 118.995 38.3057 124.345 38.3057C126.157 38.3057 127.973 38.4458 129.515 38.8145C130.876 39.139 131.284 39.6958 131.284 41.8232V42.0074L131.276 42.0034Z" fill="#3079BE"/>
<path d="M148.194 44.2712H143.299V59.2749C143.299 61.4061 142.753 61.9149 140.623 61.9149H139.58C137.36 61.9149 136.815 61.4061 136.815 59.2749V44.2712H136.725C134.548 44.2712 134.002 43.7624 134.002 41.6312V41.3987C134.002 39.2675 134.548 38.7587 136.725 38.7587H136.815V37.5527C136.815 30.097 139.855 26.6677 146.154 26.6677C148.241 26.6677 149.237 26.8519 151.143 27.2245C152.822 27.549 153.14 28.1499 153.14 30.0049V30.2372C153.14 32.6931 152.869 33.1538 151.689 32.9214C149.92 32.5969 149.104 32.4567 147.88 32.4567C144.071 32.4567 143.299 34.4038 143.299 37.5527V38.7587H151.869C154.046 38.7587 154.591 39.2675 154.591 41.3987V59.2749C154.591 61.4061 154.046 61.9149 151.869 61.9149H150.916C148.739 61.9149 148.194 61.4061 148.194 59.2749V44.2712Z" fill="#3079BE"/>
<path d="M159.711 44.2783C157.714 44.2302 157.216 43.7214 157.216 41.6381V41.4058C157.216 39.3665 157.714 38.8137 159.711 38.7656V37.0509C159.711 34.9195 160.256 34.3667 162.249 33.5294L163.61 32.9285C164.198 32.6521 164.653 32.5598 165.013 32.5598C165.876 32.5598 166.194 33.3011 166.194 34.7833V38.7656H168.006C170.184 38.7656 170.772 39.2744 170.772 41.4058V41.6381C170.772 43.7695 170.184 44.2783 168.006 44.2783H166.194V52.3349C166.194 55.0671 166.603 56.6896 168.145 56.6896C169.14 56.6896 169.367 56.5495 169.733 56.4574C170.914 56.2249 171.093 56.7338 171.093 58.821V59.0974C171.093 60.8562 170.733 61.5053 169.415 61.8779C168.509 62.1101 166.83 62.4346 165.242 62.4346C161.57 62.4346 159.711 60.027 159.711 52.431V44.2783Z" fill="#3079BE"/>
<path d="M187.35 42.0034C187.35 44.1348 186.989 44.5033 184.812 44.2269C183.678 44.0426 182.863 43.9024 181.73 43.9024C180.188 43.9024 179.642 44.4113 179.642 45.3367C179.642 46.9112 181.819 47.2357 183.906 48.2092C186.126 49.2748 188.35 50.7572 188.35 55.2964C188.35 60.6688 185.266 62.3834 180.324 62.3834C177.877 62.3834 177.152 62.2433 175.201 61.9668C173.162 61.6423 173.162 60.8571 173.162 58.7257V58.5414C173.162 56.366 173.523 56.0856 175.159 56.366C176.246 56.5503 177.018 56.8307 178.876 56.8307C180.1 56.8307 181.69 56.5062 181.69 55.116C181.69 53.4935 180.1 52.9406 178.242 52.1073C175.704 50.9975 173.389 49.6515 173.389 45.3929C173.389 41.5027 175.068 38.3057 180.418 38.3057C182.23 38.3057 184.047 38.4458 185.589 38.8145C186.95 39.139 187.358 39.6958 187.358 41.8232V42.0074L187.35 42.0034Z" fill="#3079BE"/>
<path d="M100.626 31.216C100.218 29.0846 99.7201 28.5759 97.9983 28.5759H96.4096C95.2407 28.5759 94.625 28.8884 94.0876 29.9059C93.9386 30.1904 93.7934 30.5309 93.6444 30.9396C92.3303 34.5973 90.381 40.0618 88.7454 45.7148C88.7454 45.7148 88.7454 45.7187 88.7454 45.7228C88.663 45.9271 88.3805 45.9271 88.2982 45.7228V45.7148C86.6664 40.0659 84.717 34.6013 83.399 30.9396C83.2068 30.4187 83.0225 30.0021 82.8264 29.6776C82.3164 28.8403 81.7124 28.5799 80.6338 28.5799H79.0451C77.3233 28.5799 76.8251 29.0887 76.4171 31.22C74.7384 39.8335 73.4714 51.4117 73.3342 59.2841C73.3812 61.4153 73.7892 61.9242 75.9621 61.9242H77.0958C79.3158 61.9242 79.7238 61.4153 79.7708 59.2841C79.9984 54.9292 80.4494 45.3902 81.3594 39.3688C82.6774 43.3349 83.8855 48.2468 84.6267 51.4237C84.819 52.285 84.972 53.0222 85.0779 53.5831C85.1367 53.8516 85.1995 54.0919 85.2739 54.3082C85.521 55.2137 85.9251 55.6624 86.5409 55.8706C86.9136 56.0149 87.3607 56.051 87.8901 56.039H89.161C89.6906 56.055 90.1378 56.0149 90.5104 55.8706C91.1262 55.6624 91.5303 55.2137 91.7774 54.3082C91.848 54.0919 91.9146 53.8516 91.9734 53.5831C92.0793 53.0222 92.2323 52.285 92.4246 51.4237C93.1658 48.2426 94.3739 43.3349 95.6919 39.3688C96.5979 45.3902 97.0531 54.9292 97.2805 59.2841C97.3275 61.4153 97.7355 61.9242 99.9555 61.9242H101.089C103.266 61.9242 103.674 61.4153 103.717 59.2841C103.58 51.4117 102.313 39.8335 100.634 31.22L100.626 31.216Z" fill="#3079BE"/>
</g>
<defs>
<clipPath id="clip0_150_3404">
<rect width="198.001" height="72.315" fill="white"/>
</clipPath>
</defs>
</svg>
