<svg width="72" height="103" viewBox="0 0 72 103" fill="none" xmlns="http://www.w3.org/2000/svg">
<path d="M64.9916 13.9082C65.2067 14.1267 65.42 14.3452 65.635 14.5638C65.6593 14.5915 65.6853 14.6175 65.7113 14.6453L65.7391 14.6487V14.6782C65.7478 14.706 65.7651 14.725 65.7911 14.7372C65.8137 14.7667 65.8362 14.7962 65.8588 14.8274C65.8935 14.8673 65.9264 14.9089 65.9611 14.9488C65.994 14.9887 66.0253 15.0286 66.0582 15.0684C66.0842 15.1014 66.112 15.1343 66.138 15.1673L66.1571 15.1933C66.1657 15.2245 66.1848 15.2471 66.2143 15.261C66.2663 15.3355 66.3184 15.4118 66.3721 15.4864C66.3964 15.5194 66.4224 15.5523 66.4467 15.5853L66.4727 15.594L66.4658 15.6217C66.5022 15.6789 66.5386 15.7344 66.575 15.7917C66.8196 16.2495 67.0641 16.7074 67.3087 17.1653C67.3399 17.2312 67.3711 17.2971 67.4023 17.3647L67.4093 17.3855C67.4388 17.4462 67.4665 17.5069 67.496 17.5694C67.5393 17.6786 67.581 17.7879 67.6243 17.8972C67.6521 17.9631 67.6816 18.0272 67.7093 18.0931C67.7492 18.2059 67.7891 18.3186 67.8307 18.4296C67.8567 18.4903 67.881 18.5527 67.907 18.6135C67.9174 18.6533 67.9278 18.6932 67.9382 18.7331C67.9643 18.7973 67.9885 18.8632 68.0146 18.9274C68.0232 18.9673 68.0336 19.0071 68.0423 19.047C68.0666 19.1112 68.0926 19.1754 68.1169 19.2413C68.1308 19.3037 68.1446 19.3679 68.1602 19.4303C68.1776 19.472 68.1949 19.5118 68.214 19.5535C68.2296 19.6228 68.2435 19.6922 68.2591 19.7599C68.2695 19.7928 68.2816 19.8258 68.2921 19.857C68.3181 19.9593 68.3424 20.0616 68.3684 20.164C68.384 20.2038 68.3996 20.242 68.4169 20.2819C68.436 20.3808 68.4551 20.4813 68.4742 20.5802C68.4898 20.6201 68.5054 20.66 68.5193 20.6999C68.5383 20.8022 68.5557 20.9045 68.5748 21.0069C68.5834 21.0415 68.5921 21.0745 68.6008 21.1092C68.6285 21.2462 68.6545 21.3849 68.6823 21.522C68.6927 21.5601 68.7031 21.5983 68.7135 21.6364C68.8679 22.6996 69.0708 23.7593 69.1644 24.8276C69.4038 27.5557 69.2616 30.2804 69.0257 33.0033C68.8644 34.8626 68.5557 36.6871 67.9469 38.4561C67.2757 40.4073 66.2681 42.1538 64.7679 43.5915C64.5303 43.8187 64.2649 44.0164 64.0134 44.2263L63.9926 44.2384C63.0595 45.0727 61.9617 45.6294 60.824 46.1167C60.6193 46.2035 60.4129 46.2867 60.1649 46.389C60.2811 46.5694 60.3782 46.7272 60.484 46.8816C63.1306 50.7752 65.5431 54.8024 67.463 59.1087C68.7898 62.0849 69.9362 65.1269 70.7045 68.299C71.1277 70.049 71.3861 71.8215 71.2907 73.6287C71.2613 74.182 71.1954 74.7456 71.0462 75.2763C70.3421 77.7686 67.9469 79.0277 65.4078 78.2577C63.8729 77.7929 62.6918 76.8372 61.875 75.4792C61.2298 74.4074 60.6575 73.2905 60.1042 72.1684C59.6116 71.1711 59.1919 70.1375 58.7393 69.1211C58.6647 68.9512 58.5884 68.7829 58.4323 68.6216C58.4323 68.7465 58.4254 68.8714 58.4323 68.9945C58.6768 72.5569 58.904 76.1192 59.1781 79.6781C59.3203 81.5182 59.5718 83.348 59.7313 85.1864C60.0123 88.4522 60.1458 91.7232 59.9707 94.9993C59.9117 96.1111 59.8198 97.2297 59.4694 98.2946C59.2752 98.886 59.0393 99.4774 58.7271 100.013C57.7056 101.772 56.1256 102.684 54.1207 102.851C53.0575 102.939 51.9996 102.868 50.9607 102.58C49.6981 102.23 48.7061 101.514 47.9742 100.433C47.3533 99.5173 46.9405 98.5027 46.6058 97.4552C46.0473 95.7087 45.7074 93.9119 45.4628 92.1012C45.2044 90.1865 45.0084 88.2649 44.7864 86.3449C44.7691 86.1906 44.7465 86.038 44.724 85.8593H43.562C43.4961 86.5843 43.4423 87.2936 43.3643 87.9995C43.0538 90.8039 42.7 93.5997 42.008 96.3417C41.7479 97.3737 41.3941 98.3709 40.9501 99.3387C39.9268 101.566 38.1716 102.705 35.7487 102.852C34.9301 102.903 34.1098 102.908 33.3033 102.728C31.4025 102.301 30.0757 101.167 29.2397 99.4289C28.7333 98.3761 28.5269 97.2488 28.4159 96.1006C28.1679 93.5113 28.2338 90.9167 28.3518 88.3221C28.4957 85.1361 28.8981 81.9744 29.2033 78.8023C29.3577 77.2084 29.5242 75.6059 29.519 74.0085C29.5138 72.0903 29.7444 70.1912 29.8121 68.28C29.871 66.6063 29.6612 64.9812 29.2016 63.3804C29.0334 62.796 28.8391 62.2184 28.6449 61.6426C28.2668 60.5274 27.5869 59.6273 26.7371 58.8191C25.719 57.8513 24.5293 57.1264 23.3759 56.3511C17.8104 52.6084 12.2327 48.8848 6.67589 45.1334C4.82881 43.8864 3.19678 42.4 1.98968 40.4975C1.35837 39.5019 0.87449 38.444 0.732273 37.2629C0.541495 35.6708 0.988959 34.3318 2.36603 33.397C2.94704 33.0033 3.60609 32.8542 4.29636 32.8334C5.72546 32.7883 7.1008 33.1039 8.45359 33.5167C11.4471 34.4307 14.2585 35.7714 17.0005 37.2577C18.2076 37.9115 19.38 38.6296 20.568 39.3198C20.6027 39.3268 20.6356 39.3337 20.6703 39.3424C20.6565 39.2574 20.6582 39.1672 20.6287 39.0892C19.7303 36.8172 19.3904 34.4342 19.2169 32.0182C19.0643 29.8832 18.9863 27.7483 19.1025 25.6098C19.184 24.1339 19.3262 22.6666 19.6696 21.2236C19.6852 21.1786 19.6991 21.1352 19.7147 21.0901C19.7303 20.9964 19.7459 20.9028 19.7615 20.8074C19.7789 20.7554 19.798 20.7033 19.8153 20.6513C19.8431 20.5264 19.8708 20.4016 19.8986 20.2767C19.9107 20.242 19.9211 20.2073 19.9332 20.1726C19.961 20.0651 19.9905 19.9593 20.0182 19.8518C20.0373 19.8275 20.046 19.798 20.0425 19.7668C20.0581 19.694 20.0755 19.6228 20.0911 19.55C20.1067 19.5118 20.124 19.4737 20.1396 19.4373C20.1552 19.3714 20.1708 19.3037 20.1865 19.2378C20.209 19.1771 20.2333 19.1147 20.2558 19.054C20.2853 18.969 20.3148 18.8823 20.3443 18.7973C20.3547 18.7799 20.3599 18.7609 20.3599 18.7401L20.3634 18.7245C20.398 18.6273 20.4327 18.5302 20.4674 18.4331L20.4726 18.4123C20.5021 18.3394 20.5316 18.2666 20.5593 18.1937C20.5697 18.1591 20.5784 18.1261 20.5888 18.0914C20.6166 18.0272 20.6443 17.9631 20.6703 17.8989C20.7137 17.7879 20.757 17.6786 20.8004 17.5676C20.8282 17.5069 20.8559 17.448 20.8854 17.3873L20.8923 17.3647C20.9236 17.2988 20.9548 17.2329 20.9842 17.167C21.2288 16.7091 21.4716 16.2513 21.7161 15.7917C21.7526 15.7344 21.789 15.6772 21.8254 15.62L21.8202 15.5922C21.8202 15.5922 21.8462 15.5835 21.8462 15.5853C21.8705 15.5523 21.8965 15.5194 21.9208 15.4864C22.0578 15.3078 22.1931 15.1274 22.3301 14.9488C22.3717 14.8967 22.4116 14.8447 22.4532 14.7927L22.4567 14.758L22.4897 14.7476C22.5209 14.732 22.5417 14.7077 22.5538 14.6747V14.647L22.5799 14.6435C22.6059 14.6158 22.6301 14.588 22.6562 14.5603C22.9441 14.2741 23.2337 13.9879 23.5216 13.7018C23.5459 13.6792 23.5719 13.6567 23.5962 13.6324L23.6031 13.6029H23.6343C23.6864 13.5613 23.7401 13.5179 23.7922 13.4763C23.8702 13.4121 23.9483 13.3462 24.028 13.2821C24.0575 13.2578 24.087 13.2318 24.1165 13.2075L24.1234 13.1797L24.1512 13.1832C24.2067 13.1433 24.2622 13.1017 24.3177 13.0618C24.3593 13.0306 24.4009 12.9976 24.4425 12.9664C24.4738 12.9404 24.5032 12.9161 24.5345 12.8901L24.5379 12.8641L24.5639 12.8676C24.6212 12.8277 24.6784 12.786 24.7339 12.7462C24.7773 12.7149 24.8224 12.6837 24.8657 12.6525C24.8935 12.6317 24.9212 12.6091 24.949 12.5883L24.9663 12.5571H25.001C25.053 12.5224 25.1068 12.4877 25.1588 12.453C25.1588 12.453 25.1762 12.4426 25.1744 12.4426C25.2039 12.4201 25.2334 12.3975 25.2629 12.375L25.2785 12.3455H25.3132C25.3669 12.3108 25.419 12.2761 25.4727 12.2415C25.4727 12.2415 25.4901 12.2311 25.4884 12.2311C25.5178 12.2085 25.5473 12.186 25.5768 12.1634L25.5924 12.1339H25.6254C25.6791 12.0992 25.7312 12.0646 25.7849 12.0316C26.0641 11.853 26.3434 11.6726 26.6226 11.494C26.6573 11.4697 26.692 11.4437 26.7284 11.4194L26.7388 11.3934L26.7648 11.4003C26.8221 11.3656 26.8793 11.3292 26.9365 11.2945L26.9487 11.2876C26.9799 11.265 27.0111 11.2425 27.0423 11.2199L27.0579 11.1904L27.0909 11.1939C27.1447 11.161 27.2002 11.1263 27.2539 11.0933C27.3216 11.0517 27.3892 11.0118 27.4586 10.9702C27.495 10.9459 27.5297 10.9199 27.5661 10.8956L27.5765 10.8696L27.6025 10.8765C27.6598 10.8418 27.717 10.8072 27.7742 10.7725C27.8419 10.7326 27.9095 10.6927 27.9771 10.6528C28.0153 10.6268 28.0517 10.6025 28.0899 10.5765L28.1228 10.5609C28.1818 10.5262 28.239 10.4915 28.298 10.4568C28.5408 10.3129 28.7819 10.1689 29.0247 10.0267C29.0611 10.0024 29.0993 9.97813 29.1357 9.95212L29.1461 9.92784L29.1721 9.93651C29.2293 9.90356 29.2866 9.86887 29.3438 9.83592C29.4132 9.79603 29.4843 9.75614 29.5537 9.71625C29.5884 9.6937 29.623 9.66942 29.6577 9.64687L29.6733 9.62086C29.6733 9.62086 29.7046 9.62606 29.7028 9.62606C29.7583 9.59484 29.8138 9.56189 29.8676 9.53067C30.0063 9.45263 30.1451 9.37632 30.2821 9.29827C30.3168 9.27572 30.3532 9.25144 30.3879 9.22716L30.4035 9.20115L30.433 9.20808C30.4885 9.17687 30.544 9.14391 30.5995 9.11269C30.8059 8.99996 31.0105 8.88723 31.2169 8.7745C31.2551 8.75022 31.2915 8.72593 31.3296 8.70165L31.3418 8.67737L31.3678 8.68605C31.425 8.65309 31.4823 8.62187 31.5395 8.58892C31.7476 8.47792 31.954 8.36519 32.1621 8.25419C32.1968 8.23165 32.2332 8.2091 32.2696 8.18482L32.287 8.1588L32.3182 8.16574C32.372 8.13452 32.4257 8.10504 32.4795 8.07382L32.4916 8.04954L32.5177 8.05821C32.5766 8.02526 32.6339 7.99231 32.6928 7.96109C32.8298 7.88478 32.9651 7.80673 33.1021 7.73042C33.1386 7.70614 33.1767 7.68186 33.2131 7.65758L33.2253 7.6333L33.2513 7.64197C33.3085 7.60902 33.3675 7.57433 33.4247 7.54138C33.56 7.46506 33.6953 7.38875 33.8288 7.31244C33.867 7.28816 33.9051 7.26215 33.945 7.23786L33.9797 7.22226C34.0369 7.1893 34.0959 7.15462 34.1531 7.12166C34.4671 6.94303 34.781 6.76265 35.0949 6.58402C35.1296 6.56147 35.1643 6.53719 35.199 6.51464L35.2146 6.48863L35.2458 6.49383C35.3013 6.46261 35.355 6.42966 35.4105 6.39844C35.5493 6.32039 35.6863 6.24408 35.8251 6.16604C35.8615 6.14176 35.8962 6.11921 35.9326 6.09493L35.9465 6.06891C35.9465 6.06891 35.9759 6.07585 35.9742 6.07585C36.0297 6.0429 36.087 6.01168 36.1424 5.97873C36.2795 5.90242 36.4165 5.82437 36.5535 5.74806C36.5899 5.72378 36.6263 5.6995 36.6628 5.67522L36.6766 5.6492L36.7044 5.65614C36.7616 5.62319 36.8188 5.59023 36.8761 5.55902C37.0131 5.4827 37.1501 5.40639 37.2871 5.33008C37.3235 5.3058 37.36 5.28152 37.3964 5.25897L37.4085 5.23296L37.4363 5.2399C37.4935 5.20694 37.5507 5.17399 37.608 5.14104C37.745 5.06473 37.8837 4.98842 38.0208 4.9121C38.0572 4.88956 38.0919 4.86528 38.1283 4.841L38.1439 4.81498L38.1734 4.82192C38.2289 4.7907 38.2844 4.75775 38.3399 4.72653C38.7908 4.47505 39.2417 4.22357 39.6927 3.97035C39.7291 3.94607 39.7655 3.92353 39.8019 3.89925L39.8175 3.87323L39.847 3.88017C39.9025 3.84895 39.958 3.81773 40.0135 3.78478C40.2216 3.67205 40.428 3.55931 40.6344 3.44658C40.6708 3.42403 40.7072 3.39975 40.7437 3.37721L40.7593 3.35119L40.7888 3.35813C40.8425 3.32691 40.898 3.29569 40.9518 3.26447C40.9518 3.26447 40.9865 3.2506 40.9847 3.2506C41.0437 3.21765 41.1027 3.18469 41.1634 3.15174C41.3698 3.04074 41.5762 2.92974 41.7843 2.81875C41.8207 2.7962 41.8571 2.77192 41.8935 2.74937L41.9109 2.72336C41.9109 2.72336 41.9421 2.73029 41.9404 2.73029C41.9941 2.70081 42.0479 2.66959 42.1034 2.64011L42.1155 2.61583L42.1416 2.6245C42.1988 2.59328 42.2578 2.56033 42.315 2.52911C42.7295 2.31232 43.144 2.09379 43.5585 1.877C43.5967 1.85445 43.6348 1.83017 43.673 1.80762L43.6903 1.78161L43.7198 1.78854C43.7736 1.75906 43.8291 1.72958 43.8828 1.70009L43.8984 1.67581L43.9262 1.68448C43.9817 1.65326 44.0372 1.62378 44.0944 1.59256L44.1066 1.56828L44.1309 1.57695C44.1881 1.54574 44.2471 1.51452 44.3043 1.4833C44.8714 1.2006 45.4386 0.916167 46.0057 0.633468C46.0647 0.603984 46.1254 0.5745 46.1843 0.543282L46.2207 0.531142C46.278 0.503392 46.3352 0.473908 46.3924 0.446159C46.5034 0.4028 46.6127 0.359441 46.7237 0.316083C46.8226 0.281396 46.9197 0.246709 47.0186 0.212022L47.0307 0.208553C47.1313 0.177335 47.2319 0.147851 47.3342 0.116633L47.3637 0.11143C47.7036 0.109695 48.0435 0.106227 48.3835 0.104492C48.491 0.154788 48.5985 0.206819 48.7061 0.257115C48.7182 0.290067 48.7425 0.31088 48.7772 0.319551L48.8032 0.342098C48.8292 0.369847 48.857 0.395863 48.883 0.423612L48.9038 0.451362C48.9402 0.51033 48.9784 0.569297 49.0148 0.628265C49.0477 0.704576 49.0807 0.779153 49.1136 0.855465C49.1344 0.917901 49.1553 0.980338 49.1761 1.04277C49.3478 1.88393 49.2177 2.70255 48.9471 3.49688C48.6402 4.39874 48.295 5.28672 47.9655 6.17991C47.9482 6.22847 47.9308 6.27877 47.9152 6.32733C47.9586 6.32733 48.0141 6.34641 48.0453 6.32733C48.0956 6.29438 48.1303 6.23715 48.1719 6.18858L48.2048 6.17471C48.2638 6.14176 48.3245 6.10707 48.3835 6.07412C48.6957 5.89375 49.0061 5.71511 49.3183 5.53474C49.3547 5.51045 49.3911 5.48617 49.4276 5.46189L49.4397 5.43588C49.4397 5.43588 49.4674 5.44281 49.4657 5.44281C49.5229 5.40986 49.5819 5.37517 49.6391 5.34222C49.7727 5.26591 49.908 5.1896 50.0415 5.11329C50.0814 5.08727 50.1196 5.06299 50.1595 5.03698L50.1907 5.0231C50.2496 4.99015 50.3086 4.95546 50.3676 4.92251C50.5046 4.8462 50.6399 4.77162 50.7769 4.69531C50.815 4.67103 50.8532 4.64675 50.8913 4.62247L50.9052 4.59819L50.9312 4.60686C50.9885 4.57564 51.0457 4.54442 51.1029 4.51147C51.5313 4.29815 51.9597 4.08482 52.3881 3.8715C52.48 3.83334 52.5719 3.79345 52.6638 3.75529C52.7419 3.72234 52.8199 3.69112 52.898 3.65817C52.9951 3.62348 53.094 3.58706 53.1911 3.55238L53.2015 3.54891C53.3021 3.51595 53.4044 3.483 53.5067 3.45178L53.5224 3.44831C53.6559 3.41536 53.7912 3.38241 53.9247 3.34946L53.9455 3.34599C54.2803 3.34599 54.615 3.34599 54.9497 3.34772C55.0312 3.38068 55.111 3.41363 55.1925 3.44658C55.2498 3.483 55.307 3.52116 55.3642 3.55758L55.3902 3.55411L55.392 3.58013C55.418 3.60614 55.4457 3.63389 55.4718 3.65991L55.4943 3.68765C55.503 3.71887 55.522 3.74142 55.5515 3.75529C55.6088 3.87843 55.666 4.00331 55.7232 4.12644C55.7423 4.17848 55.7614 4.23051 55.7805 4.28254C55.9452 4.92598 55.8117 5.55555 55.6712 6.17991C55.5359 6.78693 55.385 7.39222 55.2428 7.99751C55.2185 8.0981 55.1977 8.20043 55.1856 8.30275C55.1249 8.82132 55.1821 8.92192 55.6521 9.15605C55.744 9.20115 55.8342 9.25144 55.9244 9.29827C56.0215 9.33469 56.1169 9.36938 56.2141 9.4058C56.2141 9.4058 56.2366 9.41274 56.2349 9.41274C56.3285 9.44742 56.4239 9.48038 56.5176 9.51506L56.5488 9.52374C56.6199 9.55149 56.691 9.57923 56.7639 9.60698C56.7968 9.61566 56.8297 9.62433 56.8627 9.633C56.9303 9.66075 56.998 9.68676 57.0639 9.71451L57.0726 9.71798C57.1697 9.75267 57.2685 9.78909 57.3657 9.82378C57.3657 9.82378 57.3865 9.82898 57.3847 9.82898C57.4767 9.86367 57.5703 9.89835 57.6622 9.93304C57.6622 9.93304 57.6987 9.94171 57.6969 9.94171C57.7646 9.96946 57.8322 9.99721 57.8998 10.025L57.9068 10.0267C58.0056 10.0631 58.1062 10.0978 58.2051 10.1342C58.2051 10.1342 58.2207 10.1394 58.219 10.1394C58.3126 10.1741 58.4063 10.2088 58.4999 10.2452C58.5814 10.2764 58.663 10.3094 58.7445 10.3406C58.8416 10.377 58.937 10.4135 59.0341 10.4499C59.1451 10.4915 59.2561 10.5331 59.3688 10.5747C59.4313 10.6025 59.4954 10.6302 59.5579 10.658C59.6359 10.691 59.714 10.7239 59.792 10.7569C59.8839 10.795 59.9759 10.8332 60.0695 10.8713L60.1025 10.8817C60.1666 10.9112 60.2325 10.9407 60.2967 10.9702C60.4754 11.0482 60.6557 11.1263 60.8344 11.2043C60.8916 11.2338 60.9488 11.2616 61.0061 11.291L61.0303 11.2806L61.0442 11.3049C61.1032 11.3344 61.1604 11.3639 61.2194 11.3934C61.3703 11.4679 61.5194 11.5425 61.6703 11.6154C61.7276 11.6466 61.7848 11.6778 61.8438 11.709L61.8698 11.7003L61.8819 11.7246C61.9357 11.7558 61.9894 11.7853 62.0432 11.8165L62.0744 11.8096L62.0918 11.8356C62.1264 11.8582 62.1629 11.8824 62.1976 11.905C62.3363 11.983 62.4733 12.0594 62.6121 12.1374C62.6658 12.1704 62.7196 12.2016 62.7734 12.2345L62.8063 12.2311C62.8063 12.2311 62.8237 12.2605 62.8237 12.2588C62.8549 12.2813 62.8861 12.3039 62.9173 12.3264L62.9277 12.3334C62.985 12.3681 63.0439 12.4045 63.1012 12.4392L63.1272 12.4322L63.1358 12.4565C63.1705 12.4825 63.2052 12.5068 63.2399 12.5328L63.2434 12.5363C63.3023 12.5745 63.3596 12.6109 63.4185 12.649L63.4498 12.6664C63.4844 12.6924 63.5174 12.7184 63.5521 12.7444L63.5573 12.7479C63.6128 12.786 63.6683 12.8225 63.7238 12.8606L63.7533 12.8572L63.7637 12.8849C63.7932 12.9092 63.8244 12.9335 63.8539 12.9577C63.8955 12.989 63.9371 13.0202 63.9787 13.0531C64.0342 13.093 64.0897 13.1346 64.1452 13.1745L64.173 13.1711L64.1799 13.1988C64.2094 13.2231 64.2371 13.2474 64.2666 13.2734C64.3447 13.3376 64.4227 13.4035 64.5008 13.4676C64.5528 13.5093 64.6066 13.5526 64.6586 13.5942H64.6898L64.6985 13.6272C64.7245 13.6497 64.7488 13.674 64.7748 13.6966L64.8008 13.6948L64.8026 13.7209C64.8303 13.7469 64.858 13.7729 64.8841 13.7989L64.9083 13.8214C64.9361 13.8475 64.9656 13.8752 64.9933 13.9012L64.9916 13.9082ZM60.3036 45.7872C60.6297 45.6762 60.9679 45.593 61.2766 45.449C62.4369 44.9062 63.4896 44.202 64.4193 43.3158C66.3531 41.4722 67.4301 39.1672 68.0406 36.6125C68.4343 34.9649 68.5921 33.2878 68.71 31.6002C68.8765 29.1999 68.9286 26.803 68.6962 24.4027C68.5002 22.3839 68.0995 20.4189 67.4249 18.5025C66.5872 16.1229 65.0939 14.2932 62.9745 12.9473C61.4813 11.9986 59.8666 11.3101 58.2172 10.6927C57.3379 10.3632 56.4482 10.0596 55.5741 9.71451C54.8474 9.42661 54.6861 9.12137 54.7555 8.33571C54.7659 8.2143 54.7867 8.09463 54.8144 7.9767C54.948 7.40089 55.1041 6.82856 55.2133 6.24755C55.3053 5.755 55.392 5.25204 55.3972 4.75254C55.4041 4.07095 55.0989 3.8212 54.4103 3.85068C54.2213 3.85936 54.0288 3.88884 53.8449 3.93567C52.735 4.21837 51.7516 4.78376 50.7613 5.33008C49.8924 5.8105 49.0425 6.32213 48.1736 6.80254C47.9603 6.92048 47.7192 7.17369 47.466 6.9569C47.2319 6.75572 47.4435 6.4973 47.518 6.2805C47.858 5.29366 48.2239 4.31549 48.5621 3.32864C48.7616 2.74764 48.8448 2.14582 48.8067 1.52839C48.7633 0.798231 48.4581 0.51033 47.7279 0.623062C47.3047 0.687233 46.8798 0.82945 46.493 1.01156C45.5166 1.47116 44.5419 1.94117 43.6001 2.46494C39.0648 4.98495 34.5364 7.51883 30.015 10.0649C29.1062 10.5765 28.2425 11.1644 27.358 11.7177C27.2921 11.7368 27.2158 11.7385 27.162 11.7749C26.3208 12.3316 25.4606 12.8641 24.6472 13.459C23.6153 14.2134 22.7134 15.1118 22.0179 16.1923C21.4699 17.0439 21.0883 17.9821 20.7588 18.9378C19.9159 21.3745 19.569 23.8963 19.5135 26.4614C19.4719 28.409 19.484 30.3567 19.7008 32.2975C19.7754 32.9704 19.7615 33.6537 19.8552 34.3232C20.0685 35.839 20.4189 37.3236 20.9548 38.7648C21.5722 40.4211 22.4914 41.8884 23.7315 43.1371C24.8969 44.3095 26.2827 45.1733 27.8193 45.7889C28.9189 46.2295 30.0653 46.5104 31.21 46.807C32.5419 47.1521 33.893 47.3759 35.2493 47.5701C36.1771 47.7037 37.1085 47.8077 38.0416 47.8996C39.181 48.0124 40.324 48.132 41.4669 48.1841C42.5977 48.2361 43.732 48.2153 44.8645 48.2153C45.6137 48.2153 46.3647 48.2344 47.1105 48.1789C48.5465 48.0731 49.9825 47.9395 51.4151 47.7817C52.5702 47.6534 53.7287 47.5216 54.8699 47.303C56.1984 47.0481 57.5148 46.7186 58.8242 46.3769C59.3341 46.2433 59.8128 45.9884 60.3054 45.7889L60.3036 45.7872ZM59.0688 46.7706C58.245 46.9614 57.4229 47.1591 56.5974 47.3429C55.921 47.4938 55.2463 47.6655 54.5612 47.7644C53.12 47.9725 51.6753 48.1546 50.2288 48.3176C49.1431 48.439 48.054 48.5778 46.9648 48.5917C45.6467 48.609 44.3303 48.772 43.007 48.6367C42.1971 48.5535 41.375 48.583 40.5616 48.5171C39.0752 48.3957 37.5854 48.2916 36.1095 48.0887C34.5139 47.8702 32.9304 47.5545 31.3452 47.2649C30.7694 47.1591 30.2023 47.0082 29.63 46.8781C29.2207 46.7324 28.8148 46.5815 28.4038 46.4411C25.334 45.3918 22.9111 43.5551 21.3658 40.657C21.2288 40.4021 21.0432 40.2148 20.7917 40.0743C19.0626 39.1048 17.356 38.0902 15.6026 37.1658C13.1225 35.8581 10.566 34.7151 7.85698 33.9451C6.67935 33.6104 5.49133 33.3467 4.2582 33.4404C3.9044 33.4664 3.55753 33.5982 3.20719 33.6815C2.40245 34.0648 1.81971 34.6458 1.53355 35.5077C1.25258 36.3524 1.34276 37.1796 1.58384 38.0139C1.98621 39.3996 2.75973 40.5668 3.69281 41.6387C4.79759 42.9082 6.11916 43.9332 7.50663 44.8697C13.1727 48.7009 18.8493 52.5165 24.5154 56.3477C25.5959 57.0778 26.6278 57.8669 27.5175 58.8399C28.5582 59.9776 29.3351 61.2524 29.7722 62.7301C30.2075 64.2025 30.5197 65.6993 30.4746 67.2428C30.4399 68.4413 30.3341 69.6362 30.2613 70.8329C30.2283 71.3706 30.1971 71.9082 30.1607 72.4459C30.0636 73.901 29.9682 75.3578 29.8641 76.813C29.7947 77.7825 29.7271 78.7537 29.6317 79.7215C29.519 80.8436 29.3629 81.9622 29.2484 83.0844C29.1305 84.2412 29.016 85.3997 28.9449 86.5617C28.8495 88.1226 28.7715 89.687 28.735 91.2497C28.6934 93.1106 28.7749 94.9681 29.0177 96.8169C29.1981 98.1923 29.6456 99.4583 30.5388 100.53C31.236 101.368 32.1222 101.93 33.2097 102.14C33.3068 102.174 33.4022 102.237 33.501 102.24C34.2815 102.278 35.0672 102.372 35.8424 102.325C37.8993 102.199 39.436 101.236 40.3656 99.3612C40.8477 98.39 41.2171 97.3789 41.4825 96.3296C42.2543 93.2823 42.6341 90.1744 42.9428 87.0543C42.9827 86.6589 43.0053 86.2634 43.04 85.8194C42.4555 85.7501 41.9074 85.6963 41.3611 85.6165C39.7135 85.372 38.1317 84.9158 36.6593 84.1163C36.302 83.9221 36.2084 83.7781 36.3298 83.6324C36.5223 83.4017 36.7061 83.5873 36.8882 83.6654C37.5108 83.9342 38.1179 84.2481 38.7561 84.4684C41.0489 85.2558 43.4128 85.4465 45.8184 85.235C47.7817 85.0615 49.6617 84.6019 51.4064 83.6602C51.4984 83.6116 51.5938 83.544 51.6909 83.5405C51.7793 83.537 51.9094 83.5839 51.9493 83.6515C51.9857 83.7139 51.9597 83.8579 51.9059 83.9221C51.8331 84.0122 51.7169 84.0764 51.6059 84.1232C50.9208 84.4198 50.2462 84.758 49.5386 84.9904C48.7477 85.2506 47.9256 85.4119 47.1157 85.6165C46.5069 85.724 45.8739 85.672 45.2408 85.8697C45.2738 86.2079 45.305 86.5149 45.3328 86.8219C45.4125 87.6682 45.4646 88.5198 45.5773 89.3627C45.7577 90.7207 45.9606 92.077 46.1826 93.4298C46.4722 95.1814 46.8607 96.9089 47.5441 98.5565C47.969 99.5798 48.5118 100.528 49.3946 101.233C50.0155 101.727 50.704 102.081 51.5174 102.131C51.6302 102.173 51.7412 102.232 51.8574 102.251C52.8789 102.417 53.9039 102.433 54.9202 102.219C55.6608 102.063 56.3424 101.758 56.9442 101.293C58.1808 100.339 58.8433 99.0369 59.1364 97.5454C59.5752 95.3132 59.5856 93.0465 59.5267 90.7831C59.4954 89.5483 59.4382 88.3134 59.3532 87.0803C59.2561 85.6564 59.1278 84.236 58.9925 82.8155C58.819 80.9789 58.5849 79.1491 58.4496 77.309C58.2294 74.3068 58.0646 71.2995 57.8808 68.2956C57.8218 67.3191 57.6848 66.367 57.331 65.4426C56.7448 63.9163 56.2106 62.3693 55.6521 60.8327C55.5862 60.6506 55.4978 60.4737 55.6781 60.3072C55.8949 60.2933 56.0337 60.3765 56.1117 60.5951C56.2921 61.1032 56.4968 61.6027 56.6823 62.1074C57.6449 64.735 58.4774 67.4111 59.6446 69.964C60.4181 71.6585 61.1604 73.3651 62.1247 74.9641C63.1324 76.6343 64.5407 77.7252 66.5282 77.9594C67.0121 78.0166 67.4925 77.9888 67.9313 77.7391C68.5349 77.7391 68.9841 77.4009 69.3986 77.028C70.2866 76.225 70.6716 75.1792 70.76 74.0137C70.9213 71.8874 70.5883 69.8131 70.0472 67.7701C69.0899 64.1609 67.718 60.7061 66.0808 57.3536C64.2996 53.7028 62.175 50.2532 59.8839 46.9041C59.8076 46.7914 59.714 46.6925 59.6221 46.5781C59.4191 46.6509 59.2405 46.7151 59.0619 46.7775L59.0688 46.7706Z" fill="#080B0D"/>
<path d="M48.3762 0.107946C48.0363 0.10968 47.6964 0.113149 47.3564 0.114883C47.6946 -0.0134583 48.0346 -0.0585513 48.3762 0.107946Z" fill="#0E1013"/>
<path d="M54.9427 3.35635C54.6079 3.35635 54.2732 3.35635 53.9385 3.35462C54.2732 3.23322 54.6079 3.20026 54.9427 3.35635Z" fill="#0E1013"/>
<path d="M48.1649 6.19373C48.1233 6.24056 48.0886 6.29779 48.0383 6.33248C48.0088 6.35156 47.9533 6.33248 47.9082 6.33248C47.9255 6.28392 47.9429 6.23362 47.9585 6.18506C48.0261 6.18853 48.0955 6.192 48.1631 6.19373H48.1649Z" fill="#0E1013"/>
<path d="M57.6584 9.94171C57.5647 9.90702 57.4728 9.87233 57.3809 9.83765C57.4745 9.87233 57.5664 9.90702 57.6584 9.94171Z" fill="#0E1013"/>
<path d="M47.3269 0.120117C47.2264 0.151335 47.1258 0.180819 47.0234 0.212038C47.124 0.180819 47.2246 0.151335 47.3269 0.120117Z" fill="#0E1013"/>
<path d="M53.4976 3.45874C53.3953 3.49169 53.2947 3.52465 53.1924 3.55586C53.2947 3.52291 53.3953 3.48996 53.4976 3.45874Z" fill="#0E1013"/>
<path d="M60.0656 10.8834C59.9737 10.8452 59.8817 10.8071 59.7881 10.7689C59.88 10.8071 59.9719 10.8452 60.0656 10.8834Z" fill="#0E1013"/>
<path d="M58.4978 10.2539C58.4041 10.2192 58.3105 10.1845 58.2168 10.1481C58.3105 10.1828 58.4041 10.2174 58.4978 10.2539Z" fill="#0E1013"/>
<path d="M20.6655 17.8954C20.6378 17.9596 20.61 18.0237 20.584 18.0879C20.6117 18.0237 20.6395 17.9596 20.6655 17.8954Z" fill="#0E1013"/>
<path d="M46.1777 0.546753C46.1187 0.576237 46.058 0.607455 45.999 0.636939C46.058 0.607455 46.1187 0.577971 46.1777 0.546753Z" fill="#0E1013"/>
<path d="M44.2975 1.48682C44.2385 1.51803 44.1813 1.54925 44.124 1.58047C44.183 1.54925 44.2402 1.51803 44.2975 1.48682Z" fill="#0E1013"/>
<path d="M44.0862 1.59424C44.0307 1.62546 43.9752 1.65494 43.918 1.68616C43.9735 1.65494 44.029 1.62546 44.0862 1.59424Z" fill="#0E1013"/>
<path d="M20.5525 18.1885C20.5231 18.2613 20.4936 18.3342 20.4658 18.407C20.4953 18.3342 20.5248 18.2613 20.5525 18.1885Z" fill="#0E1013"/>
<path d="M42.3102 2.53076C42.2512 2.56198 42.194 2.59493 42.1367 2.62615C42.1957 2.59493 42.2529 2.56198 42.3102 2.53076Z" fill="#0E1013"/>
<path d="M42.0986 2.64014C42.0448 2.66962 41.9893 2.70084 41.9355 2.73032C41.9893 2.70084 42.0431 2.66962 42.0986 2.64014Z" fill="#0E1013"/>
<path d="M41.1601 3.15344C41.1011 3.18639 41.0404 3.21935 40.9814 3.2523C41.0404 3.21935 41.0994 3.18639 41.1601 3.15344Z" fill="#0E1013"/>
<path d="M40.0083 3.7865C39.9528 3.81772 39.8973 3.84894 39.8418 3.88189C39.8973 3.85067 39.9528 3.81945 40.0083 3.7865Z" fill="#0E1013"/>
<path d="M68.1136 19.2378C68.0894 19.1737 68.0633 19.1095 68.0391 19.0436C68.0633 19.1077 68.0894 19.1719 68.1136 19.2378Z" fill="#0E1013"/>
<path d="M61.8385 11.7194C61.7812 11.6882 61.724 11.657 61.665 11.6257C61.7223 11.657 61.7795 11.6882 61.8385 11.7194Z" fill="#0E1013"/>
<path d="M51.0965 4.5166C51.0393 4.54782 50.982 4.58077 50.9248 4.61199C50.982 4.58077 51.0393 4.54955 51.0965 4.5166Z" fill="#0E1013"/>
<path d="M36.8709 5.55896C36.8137 5.59191 36.7565 5.62487 36.6992 5.65608C36.7565 5.62313 36.8137 5.59018 36.8709 5.55896Z" fill="#0E1013"/>
<path d="M36.1389 5.97876C36.0817 6.01171 36.0262 6.04293 35.9707 6.07588C36.0279 6.04293 36.0834 6.01171 36.1389 5.97876Z" fill="#0E1013"/>
<path d="M35.407 6.39844C35.3515 6.42966 35.2977 6.46261 35.2422 6.49383C35.2977 6.46087 35.3515 6.42966 35.407 6.39844Z" fill="#0E1013"/>
<path d="M33.4195 7.54309C33.3606 7.57604 33.3033 7.61073 33.2461 7.64368C33.3051 7.61073 33.3623 7.57604 33.4195 7.54309Z" fill="#0E1013"/>
<path d="M32.6879 7.96277C32.6289 7.99572 32.5717 8.02867 32.5127 8.05989C32.5717 8.02694 32.6289 7.99399 32.6879 7.96277Z" fill="#0E1013"/>
<path d="M57.0586 9.72312C56.991 9.69537 56.9233 9.66935 56.8574 9.6416C56.9251 9.66935 56.9927 9.69537 57.0586 9.72312Z" fill="#0E1013"/>
<path d="M56.757 9.6156C56.6859 9.58785 56.6148 9.5601 56.542 9.53235C56.6131 9.5601 56.6842 9.58785 56.757 9.6156Z" fill="#0E1013"/>
<path d="M29.862 9.53589C29.8065 9.56711 29.751 9.60006 29.6973 9.63128C29.7528 9.60006 29.8083 9.56711 29.862 9.53589Z" fill="#0E1013"/>
<path d="M25.7816 12.0367C25.7279 12.0714 25.6758 12.1061 25.6221 12.1391C25.6758 12.1044 25.7279 12.0697 25.7816 12.0367Z" fill="#0E1013"/>
<path d="M63.4135 12.6594C63.3545 12.6212 63.2955 12.5848 63.2383 12.5466C63.2972 12.5848 63.3545 12.6212 63.4135 12.6594Z" fill="#0E1013"/>
<path d="M24.7286 12.7461C24.6713 12.786 24.6141 12.8276 24.5586 12.8675C24.6158 12.8276 24.6731 12.786 24.7286 12.7461Z" fill="#0E1013"/>
<path d="M20.9786 17.1653C20.9474 17.2312 20.9162 17.2971 20.8867 17.363C20.9179 17.2971 20.9492 17.2312 20.9786 17.1653Z" fill="#0E1013"/>
<path d="M67.4003 17.363C67.3691 17.2971 67.3379 17.2312 67.3066 17.1636C67.3379 17.2295 67.3691 17.2954 67.4003 17.363Z" fill="#0E1013"/>
<path d="M20.8789 17.3838C20.8512 17.4445 20.8234 17.5035 20.7939 17.5642C20.8217 17.5035 20.8494 17.4445 20.8789 17.3838Z" fill="#0E1013"/>
<path d="M67.4939 17.5659C67.4645 17.5052 67.4367 17.4445 67.4072 17.3821C67.4367 17.4428 67.4645 17.5035 67.4939 17.5659Z" fill="#0E1013"/>
<path d="M48.7703 0.323057C48.7356 0.314385 48.7114 0.293573 48.6992 0.26062C48.7235 0.281432 48.746 0.302244 48.7703 0.323057Z" fill="#0E1013"/>
<path d="M55.5445 3.76393C55.5151 3.75005 55.496 3.72751 55.4873 3.69629C55.5064 3.71884 55.5255 3.74138 55.5445 3.76393Z" fill="#0E1013"/>
<path d="M37.3915 5.2572C37.3551 5.28148 37.3186 5.30576 37.2822 5.32831C37.3186 5.30403 37.3551 5.27975 37.3915 5.2572Z" fill="#0E1013"/>
<path d="M33.9394 7.23962C33.9013 7.2639 33.8631 7.28992 33.8232 7.3142C33.8614 7.28992 33.8996 7.2639 33.9394 7.23962Z" fill="#0E1013"/>
<path d="M33.2077 7.6593C33.1713 7.68358 33.1331 7.70786 33.0967 7.73214C33.1348 7.70786 33.1713 7.68358 33.2077 7.6593Z" fill="#0E1013"/>
<path d="M32.2657 8.18823C32.2293 8.21078 32.1946 8.23333 32.1582 8.25761C32.1946 8.23506 32.2293 8.21251 32.2657 8.18823Z" fill="#0E1013"/>
<path d="M20.1306 19.4338C20.115 19.472 20.0976 19.5101 20.082 19.5466C20.0976 19.5084 20.115 19.4703 20.1306 19.4338Z" fill="#0E1013"/>
<path d="M68.211 19.55C68.1936 19.5084 68.1763 19.4685 68.1572 19.4269C68.1746 19.4685 68.1919 19.5084 68.211 19.55Z" fill="#0E1013"/>
<path d="M20.034 19.765C20.0375 19.7962 20.0288 19.824 20.0098 19.85C20.0184 19.8222 20.0254 19.7928 20.034 19.765Z" fill="#0E1013"/>
<path d="M68.2888 19.8552C68.2784 19.8222 68.2663 19.7893 68.2559 19.7581C68.2663 19.791 68.2784 19.824 68.2888 19.8552Z" fill="#0E1013"/>
<path d="M68.4118 20.2802C68.3962 20.2403 68.3806 20.2021 68.3633 20.1622C68.3789 20.2021 68.3945 20.2403 68.4118 20.2802Z" fill="#0E1013"/>
<path d="M68.5158 20.6982C68.5002 20.6583 68.4846 20.6184 68.4707 20.5785C68.4863 20.6184 68.5019 20.6583 68.5158 20.6982Z" fill="#0E1013"/>
<path d="M68.5973 21.1075C68.5886 21.0728 68.58 21.0398 68.5713 21.0051C68.5852 21.0277 68.6025 21.0468 68.6129 21.071C68.6164 21.0797 68.6025 21.0953 68.5973 21.1075Z" fill="#0E1013"/>
<path d="M68.7099 21.6329C68.6995 21.5947 68.6891 21.5566 68.6787 21.5184C68.6943 21.5427 68.7134 21.5653 68.7255 21.5913C68.729 21.6017 68.7169 21.619 68.7117 21.6329H68.7099Z" fill="#0E1013"/>
<path d="M26.723 11.4246C26.6883 11.4488 26.6536 11.4749 26.6172 11.4991C26.6519 11.4749 26.6866 11.4488 26.723 11.4246Z" fill="#0E1013"/>
<path d="M64.2635 13.2803C64.234 13.256 64.2045 13.2317 64.1768 13.2057C64.2062 13.23 64.234 13.2543 64.2635 13.2803Z" fill="#0E1013"/>
<path d="M64.8823 13.8075C64.8546 13.7815 64.8268 13.7555 64.8008 13.7295C64.8285 13.7555 64.8563 13.7815 64.8823 13.8075Z" fill="#0E1013"/>
<path d="M22.5466 14.6764C22.5345 14.7093 22.5119 14.7336 22.4824 14.7492C22.505 14.725 22.5258 14.7007 22.5466 14.6764Z" fill="#0E1013"/>
<path d="M65.7913 14.7372C65.7653 14.7251 65.7479 14.706 65.7393 14.6782C65.7774 14.6782 65.7948 14.699 65.7913 14.7372Z" fill="#0E1013"/>
<path d="M20.6639 39.339C20.6292 39.332 20.5962 39.3251 20.5615 39.3164C20.5962 39.3233 20.6292 39.3303 20.6639 39.339Z" fill="#0E1013"/>
<path d="M63.9922 44.2366L64.0113 44.2245L64.0043 44.2522L63.9922 44.2366Z" fill="#0E1013"/>
<path d="M23.5912 13.6342C23.5652 13.6567 23.5409 13.6792 23.5166 13.7035C23.5426 13.681 23.5669 13.6584 23.5912 13.6342Z" fill="#0E1013"/>
<path d="M24.5294 12.8901C24.4982 12.9162 24.467 12.9404 24.4375 12.9664C24.4687 12.9404 24.4999 12.9162 24.5294 12.8901Z" fill="#0E1013"/>
<path d="M29.1286 9.95898C29.0922 9.98327 29.054 10.0075 29.0176 10.0336C29.054 10.0093 29.0922 9.985 29.1286 9.95898Z" fill="#0E1013"/>
<path d="M66.2125 15.2609C66.183 15.247 66.1639 15.2245 66.1553 15.1932C66.1744 15.2158 66.1934 15.2383 66.2125 15.2609Z" fill="#0E1013"/>
<path d="M20.3525 18.7366C20.3525 18.7574 20.3473 18.7765 20.3369 18.7938L20.3213 18.7609L20.3525 18.7366Z" fill="#0E1013"/>
<path d="M3.20768 33.6832C3.55802 33.6 3.90489 33.4682 4.25869 33.4422C5.49182 33.3502 6.67984 33.6121 7.85747 33.9469C10.5665 34.7169 13.1229 35.8581 15.6031 37.1675C17.3565 38.0919 19.0631 39.1065 20.7922 40.076C21.0437 40.2165 21.231 40.4038 21.3663 40.6588C22.9133 43.5569 25.3362 45.3918 28.4043 46.4428C28.8153 46.5833 29.2212 46.7342 29.6305 46.8799C29.6912 46.9597 29.7363 47.0689 29.816 47.1158C30.4491 47.4782 31.07 47.8685 31.729 48.1772C33.7565 49.1276 35.9227 49.6132 38.1184 49.9705C39.0064 50.1144 39.8874 50.307 40.7979 50.3087C41.7345 50.3087 42.6728 50.3833 43.6093 50.3625C44.5094 50.3434 45.4078 50.2584 46.3062 50.1803C47.0988 50.111 47.8949 50.0416 48.6788 49.9115C49.5841 49.7606 50.4791 49.549 51.3757 49.3531C53.7691 48.831 56.1365 48.2188 58.379 47.2059C58.6236 47.0949 58.8386 46.918 59.0676 46.7706C59.2462 46.7065 59.4248 46.6423 59.6277 46.5712C59.7197 46.6839 59.8133 46.7845 59.8896 46.8972C62.1807 50.2463 64.3053 53.6959 66.0865 57.3467C67.722 60.6992 69.0938 64.154 70.0529 67.7632C70.5958 69.8062 70.9288 71.8805 70.7657 74.0068C70.6773 75.174 70.2923 76.2181 69.4043 77.0211C68.9898 77.3957 68.5406 77.7322 67.937 77.7322C67.8451 77.6646 67.7601 77.5796 67.6595 77.531C66.3622 76.9205 65.2852 76.0586 64.4302 74.8931C63.5023 73.6253 62.7548 72.2551 62.0368 70.8694C61.2459 69.3432 60.5123 67.784 59.7578 66.2387C59.1404 64.9743 58.5264 63.7065 57.9125 62.4405C57.8674 62.3468 57.8344 62.2462 57.7893 62.1526C57.4095 61.3704 57.028 60.5899 56.6481 59.8095C56.5493 59.6083 56.414 59.4626 56.1643 59.4938C55.9128 59.525 55.7619 59.6863 55.7081 59.9898C55.6908 60.0922 55.6925 60.1979 55.6856 60.302C55.5035 60.4685 55.5919 60.6454 55.6596 60.8275C56.218 62.3641 56.7522 63.9112 57.3384 65.4374C57.694 66.3635 57.8292 67.3157 57.8882 68.2904C58.072 71.296 58.2351 74.3017 58.4571 77.3038C58.5923 79.1422 58.8265 80.9737 58.9999 82.8104C59.1352 84.2308 59.2635 85.6512 59.3607 87.0751C59.4456 88.3082 59.5029 89.5431 59.5341 90.778C59.5913 93.0413 59.5809 95.3081 59.1439 97.5402C58.8508 99.03 58.1882 100.334 56.9516 101.288C56.3481 101.753 55.6682 102.06 54.9277 102.214C53.9113 102.428 52.8863 102.414 51.8648 102.245C51.7486 102.226 51.6376 102.166 51.5249 102.126C51.4538 101.991 51.3965 101.845 51.3098 101.72C50.4218 100.442 49.7541 99.0543 49.2459 97.587C48.6788 95.948 48.2088 94.2813 47.9487 92.5626C47.77 91.3832 47.574 90.2056 47.4335 89.0228C47.2983 87.8903 47.2237 86.7491 47.1231 85.6131C47.9313 85.4084 48.7551 85.2454 49.546 84.987C50.2536 84.7546 50.9265 84.4181 51.6133 84.1198C51.7226 84.073 51.8388 84.0071 51.9134 83.9186C51.9654 83.8544 51.9932 83.7122 51.9567 83.6481C51.9168 83.5804 51.7868 83.5336 51.6983 83.5371C51.6012 83.5405 51.5058 83.6082 51.4139 83.6567C49.6691 84.5985 47.7874 85.0581 45.8258 85.2315C43.4203 85.4448 41.0564 85.2523 38.7635 84.4649C38.1236 84.2464 37.5183 83.9325 36.8957 83.6619C36.7136 83.5839 36.5314 83.3983 36.3372 83.629C36.2158 83.7747 36.3094 83.9186 36.6667 84.1129C38.1375 84.9107 39.7209 85.3685 41.3685 85.6131C41.9131 85.6946 42.4629 85.7466 43.0474 85.816C43.0127 86.26 42.9902 86.6572 42.9503 87.0508C42.6415 90.1709 42.2617 93.2789 41.4899 96.3261C41.2246 97.3754 40.8552 98.3865 40.373 99.3578C39.4434 101.234 37.905 102.197 35.8498 102.322C35.0729 102.369 34.2889 102.277 33.5085 102.237C33.4096 102.232 33.3142 102.171 33.2171 102.136C32.9778 101.579 32.7107 101.033 32.5043 100.464C32.1054 99.3664 31.8955 98.227 31.729 97.0702C31.4914 95.4347 31.3561 93.794 31.3405 92.1446C31.3197 90.0374 31.3405 87.9284 31.344 85.8212C31.344 85.7171 31.344 85.6113 31.3509 85.5073C31.4134 84.4164 31.4845 83.3255 31.5383 82.2328C31.5886 81.2269 31.6198 80.2192 31.6597 79.2116C31.6597 79.1769 31.6631 79.1422 31.6649 79.1075C31.7308 78.1901 31.8157 77.2743 31.8574 76.3569C31.9094 75.2105 31.9198 74.0641 31.9562 72.9176C31.984 72.0487 32.0551 71.1816 32.0534 70.3127C32.0499 68.228 32.1609 66.1363 31.8574 64.0603C31.7204 63.1221 31.4567 62.2167 30.9694 61.4085C30.2149 60.1598 29.1795 59.1331 28.0765 58.2034C27.1087 57.3883 26.0369 56.6963 25.005 55.9575C23.1249 54.6116 21.2414 53.2727 19.3614 51.9286C18.9087 51.606 18.463 51.273 18.0207 50.9365C16.9853 50.1474 15.9586 49.3479 14.9232 48.5605C14.2191 48.0246 13.4872 47.5216 12.8021 46.9614C12.0893 46.3787 11.4216 45.7422 10.7313 45.1334C9.64905 44.1795 8.55294 43.2412 7.48631 42.2717C6.53069 41.4028 5.73636 40.39 4.99232 39.3372C4.61076 38.7996 4.21533 38.2706 3.85632 37.7173C3.42794 37.0583 3.08974 36.3559 2.90937 35.5823C2.79144 35.0725 2.80705 34.592 3.0672 34.1255C3.14178 33.992 3.16605 33.8324 3.21461 33.685L3.20768 33.6832ZM47.1803 57.6328C47.2202 57.8375 47.241 57.9121 47.248 57.9901C47.4197 59.9846 47.5948 61.9791 47.7561 63.9736C47.8116 64.6674 47.8238 65.3646 47.8741 66.06C47.9122 66.5908 48.0857 66.7885 48.606 66.837C49.0187 66.8752 49.4419 66.8752 49.8564 66.837C50.3802 66.7885 50.5502 66.589 50.5797 66.0583C50.5987 65.7114 50.5918 65.3611 50.5797 65.0142C50.4583 61.8768 50.094 58.7671 49.5789 55.673C49.4766 55.0556 49.3656 54.4382 49.2234 53.8277C49.0742 53.186 48.847 53.0247 48.2019 53.0091C48.1151 53.0073 48.0267 53.0091 47.94 53.0091C46.7814 53.0073 46.6462 53.0802 46.2646 54.1659C45.6194 56.006 45.0055 57.8548 44.3707 59.6985C44.3152 59.858 44.336 60.0748 44.1019 60.1893C44.0481 60.0488 44.003 59.9395 43.9666 59.8285C43.4862 58.3925 43.0144 56.9547 42.5253 55.5204C42.3172 54.9117 42.0883 54.3081 41.8542 53.708C41.6703 53.238 41.3269 52.9865 40.8049 53.0073C40.5621 53.0177 40.3175 53.0039 40.073 53.0108C39.4729 53.0264 39.2526 53.1912 39.0879 53.7462C39.0532 53.8624 39.0185 53.9803 38.9994 54.1C38.7792 55.4389 38.519 56.7743 38.3542 58.1202C38.1184 60.0384 37.9397 61.9618 37.7663 63.8869C37.7021 64.5962 37.7056 65.3143 37.7143 66.0271C37.7212 66.589 37.9068 66.785 38.4566 66.8422C38.819 66.8804 39.1885 66.8856 39.5509 66.8596C40.2083 66.8127 40.3834 66.6064 40.4285 65.9352C40.569 63.7985 40.706 61.66 40.8604 59.525C40.902 58.9371 40.9974 58.3509 41.0685 57.7647C41.2125 57.8895 41.2714 58.0109 41.3061 58.141C41.7484 59.806 42.2236 61.4623 42.6173 63.1394C42.9156 64.4107 43.1688 64.4141 44.1851 64.4228C45.2396 64.4315 45.4044 64.2563 45.661 63.2209C46.0738 61.549 46.523 59.8858 46.9618 58.2191C47.0034 58.0578 47.0797 57.9069 47.1855 57.6328H47.1803Z" fill="#1D7ACD"/>
<path d="M3.20767 33.6832C3.16085 33.8306 3.13483 33.9919 3.06025 34.1237C2.8001 34.5903 2.78449 35.0724 2.90243 35.5806C3.08106 36.3541 3.421 37.0582 3.84938 37.7156C4.20839 38.2688 4.60382 38.7978 4.98538 39.3354C5.72942 40.3882 6.52375 41.4011 7.47937 42.27C8.546 43.2395 9.6421 44.1777 10.7243 45.1316C11.4146 45.7404 12.0841 46.3769 12.7951 46.9596C13.4802 47.5198 14.2121 48.0228 14.9163 48.5587C15.9517 49.3478 16.9801 50.1456 18.0138 50.9348C18.4561 51.2712 18.9018 51.6042 19.3545 51.9268C21.2345 53.2727 23.1197 54.6098 24.998 55.9557C26.03 56.6945 27.1018 57.3865 28.0696 58.2017C29.1726 59.1313 30.208 60.158 30.9624 61.4068C31.4498 62.215 31.7134 63.122 31.8504 64.0586C32.1522 66.1346 32.0429 68.2245 32.0464 70.3109C32.0464 71.1781 31.977 72.047 31.9493 72.9159C31.9129 74.0623 31.9025 75.2104 31.8504 76.3551C31.8088 77.2726 31.7238 78.19 31.6579 79.1058C31.6562 79.1405 31.6544 79.1751 31.6527 79.2098C31.6128 80.2175 31.5799 81.2252 31.5313 82.2311C31.4775 83.3237 31.4064 84.4146 31.344 85.5055C31.3388 85.6096 31.3388 85.7136 31.3371 85.8194C31.3336 87.9267 31.3128 90.0356 31.3336 92.1429C31.3492 93.7922 31.4845 95.4329 31.7221 97.0684C31.8903 98.2235 32.0984 99.3647 32.4973 100.463C32.7037 101.031 32.9708 101.578 33.2102 102.134C32.1227 101.925 31.2382 101.361 30.5393 100.525C29.6461 99.4531 29.1986 98.1888 29.0182 96.8117C28.7754 94.9629 28.6939 93.1054 28.7355 91.2445C28.7702 89.6801 28.85 88.1175 28.9454 86.5565C29.0165 85.3963 29.131 84.2377 29.2489 83.0792C29.3634 81.957 29.5195 80.8384 29.6322 79.7163C29.7293 78.7485 29.7952 77.7773 29.8646 76.8078C29.9687 75.3526 30.0641 73.8975 30.1612 72.4407C30.1976 71.903 30.2288 71.3654 30.2618 70.8277C30.3363 69.631 30.4404 68.4361 30.4751 67.2376C30.5202 65.6958 30.208 64.1991 29.7727 62.7249C29.3356 61.2455 28.5569 59.9725 27.518 58.8347C26.6283 57.8618 25.5964 57.0744 24.5159 56.3425C18.8498 52.5113 13.1732 48.6957 7.50712 44.8645C6.11964 43.9263 4.79807 42.903 3.69329 41.6335C2.76021 40.5616 1.98669 39.3944 1.58432 38.0087C1.34151 37.1744 1.25306 36.3472 1.53403 35.5025C1.8202 34.6406 2.40294 34.0596 3.20767 33.6763V33.6832Z" fill="#12407D"/>
<path d="M59.0689 46.7706C58.84 46.918 58.6249 47.0949 58.3804 47.2059C56.1379 48.2188 53.7705 48.8293 51.3771 49.3531C50.4804 49.5491 49.5855 49.7606 48.6802 49.9115C47.8962 50.0416 47.1002 50.111 46.3076 50.1804C45.4092 50.2601 44.5108 50.3434 43.6107 50.3625C42.6741 50.3815 41.7376 50.3087 40.7993 50.3087C39.8905 50.3087 39.0077 50.1144 38.1197 49.9705C35.9223 49.6132 33.7578 49.1259 31.7304 48.1772C31.0713 47.8685 30.4504 47.4782 29.8174 47.1158C29.7376 47.0689 29.6925 46.9597 29.6318 46.8799C30.2024 47.01 30.7713 47.1626 31.3471 47.2667C32.9323 47.5563 34.5158 47.8719 36.1114 48.0905C37.5873 48.2934 39.0771 48.3974 40.5634 48.5189C41.3768 48.5848 42.1972 48.5553 43.0089 48.6385C44.3322 48.7738 45.6485 48.6108 46.9666 48.5934C48.0558 48.5796 49.1467 48.4408 50.2307 48.3194C51.6771 48.1564 53.1218 47.9743 54.5631 47.7661C55.2481 47.6673 55.9228 47.4956 56.5992 47.3447C57.4248 47.1609 58.2468 46.9631 59.0707 46.7724L59.0689 46.7706Z" fill="#12407D"/>
<path d="M55.6873 60.3019C55.6942 60.1979 55.6925 60.0921 55.7098 59.9897C55.7636 59.6862 55.9145 59.5249 56.166 59.4937C56.4157 59.4625 56.551 59.6082 56.6498 59.8094C57.0314 60.5898 57.413 61.3703 57.791 62.1525C57.8361 62.2461 57.8691 62.3467 57.9142 62.4404C58.5281 63.7065 59.1421 64.9743 59.7595 66.2386C60.514 67.7839 61.2459 69.3413 62.0385 70.8693C62.7565 72.2551 63.504 73.6252 64.4319 74.893C65.2869 76.0602 66.3639 76.9222 67.6612 77.5309C67.7635 77.5795 67.8468 77.6645 67.9387 77.7321C67.4982 77.9836 67.0195 78.0096 66.5356 77.9541C64.5498 77.72 63.1398 76.6291 62.1321 74.9589C61.1678 73.3616 60.4255 71.6532 59.652 69.9588C58.4848 67.4058 57.654 64.7297 56.6897 62.1022C56.5042 61.5958 56.2995 61.0963 56.1191 60.5898C56.0411 60.3713 55.9041 60.2881 55.6855 60.3019H55.6873Z" fill="#12407C"/>
<path d="M47.119 85.6131C47.2196 86.7508 47.2941 87.8903 47.4294 89.0228C47.5699 90.2056 47.7659 91.3832 47.9445 92.5626C48.2047 94.2813 48.6747 95.948 49.2418 97.587C49.75 99.0543 50.4177 100.442 51.3057 101.72C51.3924 101.845 51.4496 101.991 51.5207 102.126C50.7073 102.075 50.0171 101.722 49.3979 101.227C48.5151 100.523 47.9723 99.5746 47.5474 98.5513C46.864 96.9037 46.4738 95.1763 46.1859 93.4246C45.9622 92.0718 45.7592 90.7172 45.5806 89.3575C45.4696 88.5146 45.4158 87.6648 45.3361 86.8167C45.3066 86.5097 45.2771 86.2027 45.2441 85.8645C45.8789 85.6651 46.5119 85.7189 47.119 85.6113V85.6131Z" fill="#12407C"/>
<path d="M47.1801 57.6328C47.0743 57.9068 46.998 58.0595 46.9564 58.219C46.5176 59.884 46.0701 61.549 45.6556 63.2209C45.4006 64.2563 45.2342 64.4297 44.1797 64.4228C43.1633 64.4158 42.9101 64.4106 42.6118 63.1394C42.2181 61.4622 41.7446 59.8059 41.3007 58.141C41.266 58.0109 41.207 57.8895 41.063 57.7646C40.9919 58.3508 40.8965 58.9353 40.8549 59.525C40.7006 61.6617 40.5636 63.7984 40.4231 65.9351C40.3797 66.6063 40.2045 66.811 39.5455 66.8595C39.183 66.8855 38.8119 66.8803 38.4511 66.8422C37.9013 66.785 37.7158 66.589 37.7088 66.0271C37.7001 65.3142 37.6967 64.5962 37.7609 63.8869C37.9343 61.9617 38.1129 60.0383 38.3488 58.1202C38.5136 56.7743 38.7737 55.4389 38.994 54.0999C39.013 53.9803 39.0477 53.8623 39.0824 53.7461C39.2489 53.1911 39.4692 53.0264 40.0675 53.0108C40.3121 53.0038 40.5566 53.0177 40.7994 53.0073C41.3215 52.9865 41.6649 53.238 41.8487 53.708C42.0828 54.3081 42.3118 54.9099 42.5199 55.5204C43.0073 56.9547 43.4807 58.3924 43.9611 59.8285C43.9993 59.9395 44.0444 60.0488 44.0964 60.1892C44.3306 60.0748 44.3097 59.858 44.3652 59.6984C45 57.8548 45.6157 56.006 46.2592 54.1658C46.6407 53.0801 46.776 53.0073 47.9345 53.009C48.0213 53.009 48.1097 53.009 48.1964 53.009C48.8416 53.0246 49.0671 53.1859 49.218 53.8276C49.3602 54.4364 49.4712 55.0556 49.5735 55.673C50.0886 58.7671 50.4545 61.8785 50.5742 65.0142C50.5881 65.3628 50.595 65.7114 50.5742 66.0583C50.5447 66.589 50.3748 66.7867 49.851 66.837C49.4382 66.8751 49.015 66.8769 48.6005 66.837C48.0802 66.7884 47.9068 66.5907 47.8686 66.06C47.8183 65.3645 47.8079 64.6673 47.7507 63.9736C47.5894 61.9791 47.4142 59.9846 47.2425 57.9901C47.2356 57.912 47.2148 57.8375 47.1749 57.6328H47.1801Z" fill="#FCFDFE"/>
<path d="M33.6553 12.4912C33.9068 12.075 34.2033 11.9397 34.5034 11.8009C36.3331 10.9511 38.175 10.1221 39.9839 9.23064C41.217 8.62362 42.4033 7.92641 43.6139 7.27603C43.8186 7.16677 44.0215 6.92743 44.2712 7.10433C44.5088 7.27083 44.5054 7.56393 44.4741 7.82235C44.3735 8.64963 44.2556 9.47692 44.1446 10.3025C44.1429 10.3198 44.1377 10.3372 44.1359 10.3545C44.0891 10.6736 44.077 11.0066 44.351 11.2199C44.6094 11.4229 44.8886 11.2425 45.1367 11.1297C46.323 10.5869 47.5023 10.0284 48.6921 9.49079C49.2297 9.24625 49.7812 9.02946 50.331 8.81266C50.5062 8.74329 50.697 8.69473 50.886 8.67912C51.252 8.64616 51.4549 8.79358 51.5104 9.15433C51.5555 9.44396 51.5451 9.74227 51.5555 10.0371C51.5746 10.5574 51.5538 11.0812 51.6145 11.5963C51.7255 12.5294 52.2787 13.0688 53.2135 13.1711C53.6957 13.2248 54.1848 13.2058 54.6704 13.2248C54.8126 13.23 54.9531 13.2509 55.0936 13.2647C55.1022 13.3133 55.1126 13.3601 55.1213 13.4087C54.9808 13.4798 54.8455 13.5821 54.6964 13.6168C54.2732 13.7139 53.8483 13.8093 53.4182 13.8613C52.4695 13.9741 51.5156 14.1042 50.56 13.9203C49.7708 13.7694 49.4743 13.4035 49.4361 12.597C49.4205 12.2692 49.4049 11.9345 49.3303 11.6171C49.2367 11.2199 49.0719 11.1297 48.6799 11.2737C47.9966 11.5252 47.3081 11.7819 46.6559 12.1045C45.6587 12.5987 44.6909 13.152 43.7076 13.674C43.5081 13.7798 43.2983 13.87 43.0832 13.9359C42.7537 14.0348 42.5299 13.9394 42.4137 13.6237C42.3374 13.4174 42.3131 13.185 42.301 12.963C42.2663 12.2866 42.2507 11.6084 42.2247 10.9303C42.2212 10.8262 42.216 10.7204 42.1952 10.6181C42.112 10.2123 41.9385 10.0666 41.5327 10.1585C41.0263 10.273 40.5198 10.4152 40.0342 10.5973C38.9606 11.0014 37.9114 11.4749 36.8274 11.8495C36.0417 12.1218 35.2197 12.29 34.408 12.4825C34.2033 12.5311 33.9779 12.4895 33.6553 12.4895V12.4912Z" fill="#FBFCFE"/>
<path d="M27.3577 11.7159C28.2422 11.1626 29.1059 10.5729 30.0147 10.063C34.5361 7.51701 39.0645 4.98313 43.5998 2.46312C44.5433 1.93935 45.5163 1.46934 46.4927 1.00974C46.8812 0.827633 47.3061 0.685416 47.7276 0.621245C48.4577 0.508513 48.763 0.798149 48.8064 1.52658C48.8428 2.144 48.7613 2.74582 48.5618 3.32683C48.2219 4.31367 47.8577 5.29184 47.5177 6.27869C47.4432 6.49375 47.2316 6.75216 47.4657 6.95508C47.7189 7.17188 47.9617 6.91866 48.1733 6.80073C49.0422 6.32031 49.892 5.80868 50.761 5.32827C51.7513 4.78021 52.7346 4.21655 53.8446 3.93385C54.0285 3.88702 54.221 3.85754 54.41 3.84887C55.0986 3.81938 55.4038 4.06913 55.3969 4.75073C55.3917 5.25022 55.3067 5.75318 55.213 6.24574C55.1038 6.82674 54.9477 7.39734 54.8141 7.97488C54.7864 8.09282 54.7656 8.21422 54.7552 8.33389C54.6858 9.11955 54.8471 9.4248 55.5738 9.7127C56.4461 10.0596 57.3376 10.3613 58.2169 10.6909C59.8663 11.3083 61.481 11.9968 62.9742 12.9455C65.0953 14.2914 66.5869 16.1228 67.4246 18.5006C68.0992 20.4171 68.4999 22.3838 68.6959 24.4009C68.93 26.8012 68.878 29.1981 68.7097 31.5984C68.5918 33.2842 68.434 34.9631 68.0403 36.6107C67.4298 39.1654 66.3527 41.4721 64.4189 43.314C63.4893 44.2002 62.4366 44.9044 61.2763 45.4472C60.9659 45.5912 60.6277 45.6744 60.3033 45.7854C60.2444 45.7576 60.1802 45.6987 60.1282 45.7056C58.7754 45.9155 57.4278 46.1548 56.0733 46.3404C54.6667 46.5329 53.2532 46.6803 51.8397 46.8347C51.3055 46.8936 50.7662 46.9127 50.2302 46.9526C49.3648 47.0168 48.5011 47.1347 47.6357 47.1347C45.4088 47.133 43.1784 47.2544 40.9532 47.0515C39.9334 46.9596 38.9067 46.9353 37.8921 46.8139C36.8272 46.6873 35.7658 46.5034 34.7113 46.3057C32.9006 45.9675 31.1108 45.5374 29.3973 44.8454C27.7045 44.1638 26.2303 43.1527 25.0614 41.7513C23.5005 39.8799 22.7287 37.6687 22.4425 35.2753C22.3523 34.5191 22.2847 33.7594 22.2188 32.9998C22.146 32.1361 22.0402 31.2724 22.0332 30.4069C22.0159 28.043 21.9257 25.6774 22.2223 23.3204C22.3159 22.5816 22.3385 21.8306 22.4755 21.1004C22.7062 19.8725 23.0426 18.6706 23.5438 17.5155C24.2913 15.7916 25.3216 14.2567 26.5096 12.8137C26.8044 12.4564 27.075 12.0801 27.3577 11.7141V11.7159ZM44.2485 45.3275C46.0054 45.2287 47.764 45.1593 49.5157 45.0223C51.394 44.8766 53.2359 44.495 55.0569 44.0164C58.1319 43.2099 60.4005 41.3992 61.8365 38.5601C62.3898 37.4657 62.7592 36.3089 63.0193 35.114C63.4356 33.2096 63.4529 31.2793 63.4286 29.3455C63.413 28.0898 63.2795 26.8446 63.0124 25.6167C62.6707 24.0367 62.1313 22.5365 61.1376 21.2357C59.7449 19.4129 57.8596 18.6463 55.6102 18.7486C54.1256 18.8163 52.6791 19.125 51.2691 19.6072C49.9181 20.0685 48.567 20.5264 47.2073 20.9617C45.1729 21.6138 43.1333 21.6311 41.0972 20.9547C39.76 20.509 38.4263 20.0529 37.0839 19.6193C35.386 19.0695 33.6638 18.6775 31.8566 18.7972C29.7545 18.936 28.0913 19.8344 26.8981 21.5774C26.1089 22.7324 25.665 24.0263 25.3614 25.3791C24.8828 27.5227 24.8776 29.6976 24.9313 31.8759C24.9781 33.7681 25.3007 35.6134 25.9875 37.3842C27.2207 40.5615 29.4146 42.7607 32.6769 43.8134C33.7505 44.1603 34.857 44.4257 35.967 44.6234C38.7003 45.1125 41.4649 45.2582 44.2416 45.3275H44.2485ZM33.6568 12.4911C33.9794 12.4911 34.2049 12.5327 34.4095 12.4842C35.2212 12.2917 36.0433 12.1234 36.8289 11.8511C37.9129 11.4765 38.9605 11.0031 40.0358 10.5989C40.5214 10.4151 41.0278 10.2746 41.5342 10.1602C41.9383 10.0682 42.1118 10.2139 42.1967 10.6198C42.2176 10.7221 42.2228 10.8261 42.2262 10.9319C42.2523 11.6101 42.2679 12.2865 42.3025 12.9646C42.3147 13.1866 42.3372 13.419 42.4153 13.6254C42.5332 13.941 42.7569 14.0364 43.0847 13.9376C43.2998 13.8734 43.5097 13.7815 43.7091 13.6757C44.6925 13.1536 45.6602 12.6004 46.6575 12.1061C47.3096 11.7835 47.9964 11.5268 48.6815 11.2753C49.0734 11.1314 49.2382 11.2216 49.3319 11.6187C49.4064 11.9361 49.422 12.2709 49.4376 12.5987C49.4758 13.4051 49.7724 13.7711 50.5615 13.922C51.5171 14.1058 52.4693 13.974 53.4197 13.863C53.8498 13.8127 54.2765 13.7173 54.6979 13.6184C54.8471 13.5838 54.9824 13.4814 55.1228 13.4103C55.1142 13.3618 55.1038 13.3149 55.0951 13.2664C54.9546 13.2525 54.8124 13.2317 54.6719 13.2265C54.1863 13.2074 53.6972 13.2265 53.2151 13.1727C52.2803 13.0704 51.727 12.5293 51.616 11.5979C51.5553 11.0828 51.5761 10.5591 51.557 10.0388C51.5466 9.74392 51.557 9.44561 51.5119 9.15597C51.4564 8.79349 51.2535 8.64781 50.8876 8.68076C50.7003 8.6981 50.5095 8.74667 50.3326 8.81431C49.7828 9.0311 49.2313 9.24789 48.6936 9.49243C47.5056 10.0318 46.3262 10.5885 45.1382 11.1314C44.8902 11.2441 44.6127 11.4245 44.3526 11.2216C44.0803 11.0083 44.0907 10.6753 44.1375 10.3561C44.1392 10.3388 44.1444 10.3215 44.1462 10.3041C44.2572 9.47683 44.3751 8.65128 44.4757 7.82399C44.5069 7.56384 44.5104 7.27074 44.2728 7.10597C44.0213 6.9308 43.8184 7.16841 43.6155 7.27767C42.4049 7.92805 41.2168 8.62526 39.9855 9.23228C38.1748 10.122 36.3347 10.951 34.5049 11.8026C34.2049 11.9413 33.91 12.0783 33.6568 12.4929V12.4911Z" fill="#267ABE"/>
<path d="M27.3581 11.7159C27.0754 12.0836 26.8048 12.4582 26.51 12.8155C25.3237 14.2585 24.2935 15.7934 23.5442 17.5173C23.043 18.6741 22.7066 19.8743 22.4759 21.1022C22.3389 21.8324 22.3163 22.5834 22.2227 23.3222C21.9261 25.6774 22.018 28.0448 22.0336 30.4087C22.0388 31.2724 22.1464 32.1379 22.2192 33.0016C22.2834 33.7612 22.351 34.5209 22.4429 35.2771C22.7308 37.6705 23.5026 39.8818 25.0618 41.7531C26.2307 43.1545 27.7049 44.1639 29.3977 44.8472C31.1129 45.5375 32.901 45.9676 34.7117 46.3075C35.7662 46.5052 36.8276 46.6891 37.8925 46.8157C38.9088 46.9371 39.9338 46.9614 40.9536 47.0533C43.1788 47.2562 45.4092 47.1348 47.6361 47.1365C48.5015 47.1365 49.3652 47.0186 50.2306 46.9544C50.7666 46.9145 51.3059 46.8937 51.8401 46.8365C53.2519 46.6821 54.6654 46.5347 56.0737 46.3422C57.4282 46.1566 58.7775 45.9173 60.1286 45.7074C60.1823 45.6988 60.2448 45.7595 60.3037 45.7872C59.8112 45.9867 59.3325 46.2416 58.8226 46.3752C57.5132 46.7168 56.1968 47.0463 54.8683 47.3013C53.7288 47.5198 52.5686 47.6534 51.4135 47.78C49.9809 47.9378 48.5466 48.0713 47.1088 48.1771C46.3631 48.2326 45.6103 48.2136 44.8628 48.2136C43.7303 48.2136 42.5961 48.2344 41.4653 48.1823C40.3206 48.1286 39.1794 48.0089 38.0399 47.8979C37.1068 47.806 36.1755 47.7019 35.2476 47.5684C33.8914 47.3724 32.5403 47.1504 31.2083 46.8053C30.0637 46.5087 28.9173 46.2277 27.8177 45.7872C26.281 45.1715 24.8936 44.3078 23.7298 43.1354C22.4898 41.8867 21.5706 40.4194 20.9531 38.7631C20.4172 37.3236 20.0669 35.8373 19.8536 34.3214C19.7599 33.652 19.7738 32.9686 19.6992 32.2957C19.4841 30.355 19.4703 28.4073 19.5119 26.4596C19.5674 23.8945 19.9142 21.3728 20.7571 18.936C21.0884 17.9804 21.4682 17.0421 22.0163 16.1906C22.71 15.1118 23.6136 14.2117 24.6456 13.4572C25.459 12.8623 26.3192 12.3299 27.1604 11.7732C27.2141 11.7368 27.2904 11.735 27.3563 11.7159H27.3581Z" fill="#1A427D"/>
<path d="M44.2471 45.3275C41.4704 45.2599 38.7041 45.1124 35.9725 44.6234C34.8625 44.4256 33.7543 44.1586 32.6825 43.8134C29.4202 42.7607 27.2262 40.5615 25.9931 37.3842C25.3063 35.6134 24.9837 33.7681 24.9369 31.8759C24.8831 29.6976 24.8883 27.5227 25.367 25.379C25.6688 24.028 26.1127 22.7324 26.9036 21.5773C28.0968 19.8326 29.7601 18.9359 31.8621 18.7972C33.6693 18.6775 35.3915 19.0695 37.0894 19.6193C38.4301 20.0529 39.7638 20.509 41.1027 20.9547C43.1388 21.6328 45.1784 21.6138 47.2128 20.9617C48.5726 20.5263 49.9236 20.0685 51.2747 19.6071C52.6847 19.125 54.1311 18.8163 55.6157 18.7486C57.8652 18.6463 59.7504 19.4129 61.1431 21.2357C62.1369 22.5364 62.6763 24.0367 63.0179 25.6166C63.2833 26.8446 63.4186 28.0898 63.4342 29.3455C63.4585 31.2793 63.4394 33.2114 63.0249 35.1139C62.763 36.3089 62.3953 37.4674 61.842 38.5601C60.406 41.3992 58.1358 43.2099 55.0625 44.0163C53.2414 44.4933 51.3995 44.8748 49.5212 45.0223C47.7678 45.1575 46.0092 45.2286 44.254 45.3275H44.2471ZM44.9738 42.2438C45.5773 42.1779 46.7602 42.0929 47.9274 41.9108C49.242 41.7045 50.4959 41.283 51.6181 40.5442C51.9355 40.3343 52.2338 40.0846 52.4991 39.814C52.7523 39.5556 52.7229 39.2018 52.4887 38.9711C52.2511 38.737 51.9077 38.7075 51.6441 38.9642C50.7648 39.8244 49.6669 40.2615 48.5101 40.5372C45.86 41.1668 43.1943 41.1842 40.5373 40.5771C39.9147 40.4349 39.3094 40.199 38.7128 39.9649C38.1595 39.7481 37.6704 39.4168 37.2351 39.0006C36.9403 38.7196 36.6003 38.7231 36.3541 38.9676C36.1009 39.2191 36.0939 39.5539 36.3749 39.8504C36.5761 40.0638 36.7963 40.2823 37.0495 40.421C37.6861 40.7731 38.326 41.1373 39.0024 41.3957C40.735 42.0531 42.5578 42.2022 44.9738 42.2421V42.2438ZM54.8283 26.6746C54.0201 26.7145 53.2588 26.907 52.709 27.5851C52.4055 27.958 52.3604 28.3066 52.5633 28.5286C52.761 28.7454 53.1252 28.7263 53.5154 28.4627C54.3896 27.8713 55.2602 27.8661 56.1413 28.4488C56.2817 28.5425 56.4465 28.6257 56.6113 28.6552C57.083 28.7385 57.3674 28.3985 57.1715 27.9667C57.0605 27.7221 56.8853 27.4845 56.6841 27.3042C56.1673 26.8411 55.5221 26.7058 54.8301 26.6746H54.8283ZM33.4612 26.6746C32.9183 26.7041 32.3391 26.7839 31.8725 27.1481C31.5933 27.3649 31.3314 27.651 31.1684 27.9597C30.9498 28.3725 31.2586 28.7367 31.7234 28.657C31.8881 28.6292 32.0529 28.546 32.1934 28.4523C33.0744 27.8661 33.9433 27.873 34.8226 28.4558C34.977 28.5581 35.1643 28.6413 35.3447 28.6622C35.7627 28.7125 36.0298 28.3829 35.8494 28.0048C35.7124 27.7169 35.5008 27.4377 35.258 27.2331C34.7602 26.8133 34.1393 26.7006 33.4612 26.6746ZM57.05 25.5854C57.0067 25.516 56.9495 25.3669 56.8454 25.2646C56.228 24.661 54.2369 24.3957 53.4652 24.805C53.2605 24.9142 53.1651 25.0911 53.1981 25.3218C53.231 25.549 53.4253 25.719 53.6733 25.719C53.8103 25.719 53.9456 25.6704 54.0826 25.6548C54.8336 25.5681 55.5759 25.5438 56.2332 26.019C56.2887 26.0589 56.3511 26.0971 56.417 26.1161C56.7136 26.2063 57.0327 25.9757 57.05 25.5854ZM34.6891 25.7068C34.9631 25.719 35.166 25.5525 35.1973 25.3027C35.2285 25.0512 35.1001 24.8449 34.8088 24.7703C34.0561 24.5812 33.2947 24.55 32.5454 24.7737C32.235 24.8657 31.9315 25.0148 31.6557 25.1865C31.3175 25.3964 31.2603 25.6756 31.4424 25.9288C31.6158 26.1682 31.8656 26.2133 32.1726 26.0051C32.6408 25.6878 33.1559 25.5837 33.7057 25.6132C34.0335 25.6305 34.3596 25.6756 34.6874 25.7086L34.6891 25.7068Z" fill="#FEFEFF"/>
<path d="M44.9757 42.2438C42.5597 42.2022 40.7369 42.0547 39.0043 41.3974C38.3262 41.1407 37.6879 40.7748 37.0514 40.4227C36.7982 40.2822 36.578 40.0655 36.3768 39.8521C36.0958 39.5538 36.1027 39.2191 36.356 38.9693C36.604 38.7231 36.9422 38.7213 37.237 39.0023C37.6723 39.4168 38.1614 39.7498 38.7147 39.9666C39.3113 40.2007 39.9166 40.4366 40.5392 40.5788C43.1962 41.1858 45.8637 41.1685 48.512 40.5389C49.6688 40.2632 50.7667 39.8261 51.646 38.9659C51.9079 38.7092 52.253 38.7387 52.4906 38.9728C52.723 39.2035 52.7542 39.5573 52.501 39.8157C52.2357 40.088 51.9373 40.3377 51.62 40.5459C50.4978 41.2847 49.2422 41.7079 47.9293 41.9125C46.7621 42.0946 45.581 42.1796 44.9757 42.2455V42.2438Z" fill="#0D0D0E"/>
<path d="M54.8286 26.6747C55.5206 26.7059 56.1675 26.8412 56.6826 27.3042C56.8838 27.4846 57.0589 27.7205 57.1699 27.9668C57.3659 28.3986 57.0815 28.7386 56.6098 28.6553C56.445 28.6258 56.282 28.5426 56.1397 28.4489C55.2587 27.8662 54.388 27.8696 53.5139 28.4628C53.1237 28.7264 52.7595 28.7438 52.5618 28.5287C52.3589 28.3067 52.4057 27.9581 52.7075 27.5852C53.2573 26.9071 54.0186 26.7163 54.8268 26.6747H54.8286Z" fill="#0D0D0E"/>
<path d="M33.4631 26.6747C34.1395 26.7007 34.7604 26.8134 35.2599 27.2331C35.5044 27.4378 35.7143 27.717 35.8513 28.0049C36.0317 28.383 35.7646 28.7125 35.3466 28.6622C35.1662 28.6397 34.9789 28.5565 34.8246 28.4559C33.9453 27.8749 33.0746 27.8662 32.1953 28.4524C32.0548 28.546 31.8883 28.6276 31.7253 28.657C31.2605 28.7368 30.9518 28.3743 31.1703 27.9598C31.3351 27.6494 31.5952 27.365 31.8744 27.1482C32.3427 26.7839 32.9202 26.7042 33.4631 26.6747Z" fill="#0D0D0E"/>
<path d="M57.0498 25.5855C57.0324 25.9757 56.7133 26.2064 56.4167 26.1162C56.3508 26.0971 56.2901 26.059 56.2329 26.0191C55.5756 25.5439 54.8333 25.5681 54.0823 25.6549C53.9453 25.6705 53.81 25.719 53.673 25.719C53.425 25.719 53.229 25.5491 53.1978 25.3219C53.1648 25.0895 53.2602 24.9126 53.4649 24.805C54.2367 24.3957 56.2277 24.6628 56.8451 25.2646C56.9492 25.367 57.0064 25.5161 57.0498 25.5855Z" fill="#0F0F10"/>
<path d="M34.6895 25.7069C34.3617 25.6739 34.0356 25.6288 33.7078 25.6115C33.158 25.582 32.6429 25.6861 32.1747 26.0034C31.8677 26.2116 31.6179 26.1665 31.4445 25.9271C31.2624 25.6739 31.3196 25.3947 31.6578 25.1848C31.9336 25.0131 32.2371 24.8657 32.5476 24.7721C33.2968 24.5483 34.0582 24.5795 34.8109 24.7686C35.1023 24.8414 35.2306 25.0496 35.1994 25.301C35.1682 25.5508 34.9652 25.7173 34.6912 25.7051L34.6895 25.7069Z" fill="#0F0F10"/>
</svg>
